%TF.GenerationSoftware,KiCad,Pcbnew,(7.0.0-0)*%
%TF.CreationDate,2023-03-12T05:29:04-07:00*%
%TF.ProjectId,TM1640_led_array,544d3136-3430-45f6-9c65-645f61727261,rev?*%
%TF.SameCoordinates,Original*%
%TF.FileFunction,Copper,L2,Bot*%
%TF.FilePolarity,Positive*%
%FSLAX46Y46*%
G04 Gerber Fmt 4.6, Leading zero omitted, Abs format (unit mm)*
G04 Created by KiCad (PCBNEW (7.0.0-0)) date 2023-03-12 05:29:04*
%MOMM*%
%LPD*%
G01*
G04 APERTURE LIST*
%TA.AperFunction,ComponentPad*%
%ADD10R,1.700000X1.700000*%
%TD*%
%TA.AperFunction,ComponentPad*%
%ADD11O,1.700000X1.700000*%
%TD*%
%TA.AperFunction,ComponentPad*%
%ADD12O,1.700000X0.900000*%
%TD*%
%TA.AperFunction,ComponentPad*%
%ADD13O,2.000000X0.900000*%
%TD*%
%TA.AperFunction,ViaPad*%
%ADD14C,0.800000*%
%TD*%
%TA.AperFunction,ViaPad*%
%ADD15C,0.700000*%
%TD*%
%TA.AperFunction,Conductor*%
%ADD16C,0.400000*%
%TD*%
G04 APERTURE END LIST*
D10*
%TO.P,J2,1,Pin_1*%
%TO.N,/3V3_SCK*%
X127634999Y-76580999D03*
D11*
%TO.P,J2,2,Pin_2*%
%TO.N,/3v3_GND*%
X127634999Y-74040999D03*
%TO.P,J2,3,Pin_3*%
%TO.N,/3V3_DIN*%
X127634999Y-71500999D03*
%TD*%
D12*
%TO.P,J1,S4,SHIELD*%
%TO.N,Net-(JP1-A)*%
X147829999Y-76954999D03*
%TO.P,J1,S3,SHIELD*%
X147829999Y-85604999D03*
D13*
%TO.P,J1,S2,SHIELD*%
X143659999Y-76954999D03*
%TO.P,J1,S1,SHIELD*%
X143659999Y-85604999D03*
%TD*%
D14*
%TO.N,/GRID4*%
X106600000Y-112600000D03*
D15*
%TO.N,GND*%
X142379800Y-88938200D03*
%TO.N,/5V_SCK*%
X123177400Y-73545800D03*
%TO.N,VBUS*%
X123101200Y-67018000D03*
X90690800Y-67424400D03*
%TO.N,/5V_DIN*%
X117030600Y-67932400D03*
X92849800Y-70066000D03*
%TO.N,/5V_SCK*%
X102095400Y-77508200D03*
%TO.N,/SEG4*%
X108369200Y-103873400D03*
X100546000Y-68694400D03*
%TO.N,GND*%
X97904400Y-76314400D03*
%TO.N,/GRID8*%
X99250600Y-86703000D03*
%TO.N,/GRID4*%
X93230800Y-81775400D03*
%TO.N,/GRID5*%
X88201600Y-75069800D03*
%TO.N,/GRID3*%
X88328600Y-72529800D03*
%TO.N,/GRID7*%
X88150800Y-77609800D03*
%TO.N,/GRID6*%
X76263600Y-88684200D03*
%TO.N,/GRID8*%
X113271400Y-103695600D03*
X113271400Y-112230000D03*
X113271400Y-94881800D03*
X113347600Y-121526400D03*
%TO.N,/GRID1*%
X82232600Y-69939000D03*
%TO.N,/GRID4*%
X106591200Y-94780200D03*
X106565800Y-103594000D03*
X106565800Y-121247000D03*
%TO.N,/GRID3*%
X100876200Y-121196200D03*
X100876200Y-112611000D03*
X100876200Y-103721000D03*
X100850800Y-94729400D03*
%TO.N,/GRID5*%
X94754800Y-121170800D03*
X94780200Y-112458600D03*
X94754800Y-103517800D03*
X94754800Y-94856400D03*
%TO.N,/GRID7*%
X89065200Y-121221600D03*
X89090600Y-112280800D03*
X88989000Y-103771800D03*
X88938200Y-94932600D03*
%TO.N,/GRID1*%
X83045400Y-94983400D03*
X82994600Y-103619400D03*
X82969200Y-112484000D03*
X82893000Y-121120000D03*
%TO.N,/GRID2*%
X70929600Y-94932600D03*
X70929600Y-103670200D03*
X70929600Y-112280800D03*
X70904200Y-121069200D03*
%TO.N,/GRID6*%
X76466800Y-121170800D03*
X76466800Y-112484000D03*
X76390600Y-103568600D03*
X76314400Y-94831000D03*
%TO.N,GND*%
X124841000Y-70104000D03*
X124841000Y-74930000D03*
X137160000Y-82550000D03*
X137160000Y-79502000D03*
X140970000Y-84455000D03*
X141046200Y-76428600D03*
%TD*%
D16*
%TO.N,/GRID4*%
X106565800Y-112565800D02*
X106565800Y-112560200D01*
X106600000Y-112600000D02*
X106565800Y-112565800D01*
X106565800Y-112634200D02*
X106600000Y-112600000D01*
%TO.N,/5V_SCK*%
X122796400Y-73164800D02*
X123177400Y-73545800D01*
X116954400Y-73164800D02*
X122796400Y-73164800D01*
%TO.N,VBUS*%
X121069200Y-64986000D02*
X123101200Y-67018000D01*
X90690800Y-67424400D02*
X93129200Y-64986000D01*
X117995800Y-64986000D02*
X121069200Y-64986000D01*
X93129200Y-64986000D02*
X117995800Y-64986000D01*
%TO.N,/5V_DIN*%
X92849800Y-70066000D02*
X94983400Y-67932400D01*
X94983400Y-67932400D02*
X117030600Y-67932400D01*
%TO.N,/5V_SCK*%
X112611000Y-77508200D02*
X116954400Y-73164800D01*
X102095400Y-77508200D02*
X112611000Y-77508200D01*
%TO.N,/SEG4*%
X99539600Y-88109600D02*
X105508600Y-88109600D01*
X105508600Y-88109600D02*
X108369200Y-90970200D01*
X100546000Y-84346939D02*
X98500600Y-86392339D01*
X100546000Y-68694400D02*
X100546000Y-84346939D01*
X98500600Y-86392339D02*
X98500600Y-87070600D01*
X108369200Y-90970200D02*
X108369200Y-103873400D01*
X98500600Y-87070600D02*
X99539600Y-88109600D01*
%TO.N,/GRID8*%
X107124600Y-86652200D02*
X99301400Y-86652200D01*
X99301400Y-86652200D02*
X99250600Y-86703000D01*
%TO.N,/GRID4*%
X93230800Y-84239200D02*
X97701200Y-88709600D01*
X93230800Y-81775400D02*
X93230800Y-84239200D01*
X97701200Y-88709600D02*
X105194200Y-88709600D01*
X105194200Y-88709600D02*
X106540400Y-90055800D01*
X106540400Y-90055800D02*
X106540400Y-94729400D01*
X106540400Y-94729400D02*
X106591200Y-94780200D01*
%TO.N,/GRID5*%
X88379400Y-75069800D02*
X88201600Y-75069800D01*
X94704000Y-89801800D02*
X90538400Y-85636200D01*
X90538400Y-77228800D02*
X88379400Y-75069800D01*
X90538400Y-85636200D02*
X90538400Y-77228800D01*
%TO.N,/GRID3*%
X100850800Y-94729400D02*
X100850800Y-94018200D01*
X92087800Y-85255200D02*
X92087800Y-76289000D01*
X92087800Y-76289000D02*
X88328600Y-72529800D01*
X100850800Y-94018200D02*
X92087800Y-85255200D01*
%TO.N,/GRID5*%
X94704000Y-89801800D02*
X94704000Y-94805600D01*
X94704000Y-94805600D02*
X94754800Y-94856400D01*
%TO.N,/GRID7*%
X88938200Y-78397200D02*
X88150800Y-77609800D01*
X88938200Y-94932600D02*
X88938200Y-78397200D01*
%TO.N,/GRID8*%
X111264800Y-86652200D02*
X113271400Y-88658800D01*
X113271400Y-88658800D02*
X113271400Y-94881800D01*
X107124600Y-86652200D02*
X111264800Y-86652200D01*
%TO.N,/GRID6*%
X76263600Y-94780200D02*
X76314400Y-94831000D01*
X76263600Y-88684200D02*
X76263600Y-94780200D01*
%TO.N,/GRID8*%
X113271400Y-94881800D02*
X113271400Y-103695600D01*
X113271400Y-103695600D02*
X113271400Y-112230000D01*
X113271400Y-112230000D02*
X113271400Y-121450200D01*
X113271400Y-121450200D02*
X113347600Y-121526400D01*
%TO.N,/GRID1*%
X82232600Y-94170600D02*
X83045400Y-94983400D01*
X82232600Y-69939000D02*
X82232600Y-94170600D01*
%TO.N,/GRID4*%
X106565800Y-94805600D02*
X106591200Y-94780200D01*
X106565800Y-103594000D02*
X106565800Y-94805600D01*
X106565800Y-112560200D02*
X106565800Y-103594000D01*
X106565800Y-121247000D02*
X106565800Y-112634200D01*
%TO.N,/GRID3*%
X100876200Y-112611000D02*
X100876200Y-121196200D01*
X100876200Y-103721000D02*
X100876200Y-112611000D01*
X100850800Y-103695600D02*
X100876200Y-103721000D01*
X100850800Y-94729400D02*
X100850800Y-103695600D01*
%TO.N,/GRID5*%
X94780200Y-121145400D02*
X94754800Y-121170800D01*
X94780200Y-112458600D02*
X94780200Y-121145400D01*
X94754800Y-103517800D02*
X94754800Y-112433200D01*
X94754800Y-112433200D02*
X94780200Y-112458600D01*
X94754800Y-94856400D02*
X94754800Y-103517800D01*
%TO.N,/GRID7*%
X89090600Y-121196200D02*
X89065200Y-121221600D01*
X89090600Y-112280800D02*
X89090600Y-121196200D01*
X88989000Y-112179200D02*
X89090600Y-112280800D01*
X88989000Y-103771800D02*
X88989000Y-112179200D01*
X88938200Y-103721000D02*
X88989000Y-103771800D01*
X88938200Y-94932600D02*
X88938200Y-103721000D01*
%TO.N,/GRID1*%
X82994600Y-95034200D02*
X83045400Y-94983400D01*
X82994600Y-103619400D02*
X82994600Y-95034200D01*
X82969200Y-103644800D02*
X82994600Y-103619400D01*
X82969200Y-112484000D02*
X82969200Y-103644800D01*
X82893000Y-112560200D02*
X82969200Y-112484000D01*
X82893000Y-121120000D02*
X82893000Y-112560200D01*
%TO.N,/GRID2*%
X70929600Y-103670200D02*
X70929600Y-94932600D01*
X70929600Y-112280800D02*
X70929600Y-103670200D01*
X70904200Y-112306200D02*
X70929600Y-112280800D01*
X70904200Y-121069200D02*
X70904200Y-112306200D01*
%TO.N,/GRID6*%
X76466800Y-112484000D02*
X76466800Y-121170800D01*
X76390600Y-112407800D02*
X76466800Y-112484000D01*
X76390600Y-103568600D02*
X76390600Y-112407800D01*
X76314400Y-103492400D02*
X76390600Y-103568600D01*
X76314400Y-94831000D02*
X76314400Y-103492400D01*
%TD*%
%TA.AperFunction,Conductor*%
%TO.N,GND*%
G36*
X92983831Y-64049144D02*
G01*
X93043547Y-64064690D01*
X93088377Y-64107093D01*
X93107218Y-64165854D01*
X93095403Y-64226420D01*
X93055860Y-64273792D01*
X92998381Y-64296239D01*
X92967766Y-64299956D01*
X92967759Y-64299957D01*
X92960328Y-64300860D01*
X92953323Y-64303516D01*
X92953312Y-64303519D01*
X92950839Y-64304457D01*
X92929241Y-64310478D01*
X92926651Y-64310952D01*
X92926644Y-64310954D01*
X92919268Y-64312306D01*
X92902688Y-64319768D01*
X92864434Y-64336984D01*
X92857518Y-64339848D01*
X92808288Y-64358519D01*
X92808278Y-64358523D01*
X92801270Y-64361182D01*
X92795099Y-64365441D01*
X92795094Y-64365444D01*
X92792922Y-64366944D01*
X92773387Y-64377962D01*
X92770984Y-64379043D01*
X92770977Y-64379047D01*
X92764143Y-64382123D01*
X92758243Y-64386745D01*
X92758240Y-64386747D01*
X92716795Y-64419216D01*
X92710766Y-64423651D01*
X92667449Y-64453551D01*
X92667441Y-64453557D01*
X92661271Y-64457817D01*
X92656301Y-64463426D01*
X92656294Y-64463433D01*
X92621384Y-64502838D01*
X92616251Y-64508290D01*
X90562911Y-66561630D01*
X90534398Y-66582922D01*
X90501013Y-66595239D01*
X90432884Y-66609721D01*
X90426533Y-66611071D01*
X90420604Y-66613710D01*
X90420600Y-66613712D01*
X90269142Y-66681145D01*
X90269134Y-66681149D01*
X90263208Y-66683788D01*
X90257959Y-66687601D01*
X90257953Y-66687605D01*
X90123823Y-66785056D01*
X90123814Y-66785063D01*
X90118570Y-66788874D01*
X90114226Y-66793697D01*
X90114223Y-66793701D01*
X90003287Y-66916907D01*
X90003282Y-66916913D01*
X89998941Y-66921735D01*
X89995696Y-66927355D01*
X89995692Y-66927361D01*
X89912798Y-67070938D01*
X89912795Y-67070943D01*
X89909550Y-67076565D01*
X89907544Y-67082737D01*
X89907542Y-67082743D01*
X89859078Y-67231900D01*
X89854303Y-67246597D01*
X89853624Y-67253049D01*
X89853623Y-67253058D01*
X89841179Y-67371461D01*
X89835615Y-67424400D01*
X89836294Y-67430860D01*
X89853623Y-67595741D01*
X89853624Y-67595748D01*
X89854303Y-67602203D01*
X89856310Y-67608382D01*
X89856311Y-67608383D01*
X89905981Y-67761253D01*
X89909550Y-67772235D01*
X89912797Y-67777859D01*
X89912798Y-67777861D01*
X89965128Y-67868500D01*
X89998941Y-67927065D01*
X90003285Y-67931890D01*
X90003287Y-67931892D01*
X90009561Y-67938860D01*
X90118570Y-68059926D01*
X90263207Y-68165012D01*
X90426533Y-68237729D01*
X90432891Y-68239080D01*
X90432893Y-68239081D01*
X90468485Y-68246646D01*
X90601409Y-68274900D01*
X90773688Y-68274900D01*
X90780191Y-68274900D01*
X90955067Y-68237729D01*
X91118393Y-68165012D01*
X91263030Y-68059926D01*
X91382659Y-67927065D01*
X91472050Y-67772235D01*
X91527297Y-67602203D01*
X91527624Y-67602309D01*
X91537472Y-67575609D01*
X91558766Y-67547090D01*
X93383037Y-65722819D01*
X93423266Y-65695939D01*
X93470719Y-65686500D01*
X117953428Y-65686500D01*
X118038172Y-65686500D01*
X120727681Y-65686500D01*
X120775134Y-65695939D01*
X120815362Y-65722819D01*
X122233230Y-67140687D01*
X122254522Y-67169199D01*
X122264376Y-67195909D01*
X122264703Y-67195803D01*
X122309329Y-67333149D01*
X122319950Y-67365835D01*
X122323197Y-67371459D01*
X122323198Y-67371461D01*
X122389192Y-67485767D01*
X122409341Y-67520665D01*
X122413685Y-67525490D01*
X122413687Y-67525492D01*
X122435601Y-67549830D01*
X122528970Y-67653526D01*
X122673607Y-67758612D01*
X122836933Y-67831329D01*
X122843291Y-67832680D01*
X122843293Y-67832681D01*
X122878885Y-67840246D01*
X123011809Y-67868500D01*
X123184088Y-67868500D01*
X123190591Y-67868500D01*
X123365467Y-67831329D01*
X123528793Y-67758612D01*
X123673430Y-67653526D01*
X123793059Y-67520665D01*
X123882450Y-67365835D01*
X123937697Y-67195803D01*
X123956385Y-67018000D01*
X123937697Y-66840197D01*
X123882450Y-66670165D01*
X123793059Y-66515335D01*
X123673430Y-66382474D01*
X123528793Y-66277388D01*
X123468864Y-66250706D01*
X123371405Y-66207314D01*
X123371398Y-66207311D01*
X123365467Y-66204671D01*
X123359108Y-66203319D01*
X123359107Y-66203319D01*
X123290986Y-66188839D01*
X123257600Y-66176522D01*
X123229087Y-66155230D01*
X121582139Y-64508282D01*
X121577022Y-64502847D01*
X121537129Y-64457817D01*
X121487610Y-64423636D01*
X121481604Y-64419216D01*
X121440161Y-64386747D01*
X121440158Y-64386745D01*
X121434257Y-64382122D01*
X121427419Y-64379044D01*
X121427410Y-64379039D01*
X121425010Y-64377959D01*
X121405610Y-64367035D01*
X121405424Y-64366907D01*
X121364590Y-64319768D01*
X121351867Y-64258713D01*
X121370475Y-64199187D01*
X121415706Y-64156248D01*
X121476118Y-64140759D01*
X139849309Y-64199837D01*
X139896199Y-64209208D01*
X139936057Y-64235628D01*
X148263870Y-72464300D01*
X148265688Y-72466096D01*
X148291736Y-72503694D01*
X148302382Y-72548177D01*
X148466946Y-75876047D01*
X148458207Y-75928276D01*
X148428475Y-75972097D01*
X148383171Y-75999517D01*
X148331287Y-76005451D01*
X148326656Y-76004500D01*
X147381794Y-76004500D01*
X147378683Y-76004816D01*
X147378670Y-76004817D01*
X147243931Y-76018519D01*
X147243928Y-76018519D01*
X147237679Y-76019155D01*
X147231681Y-76021036D01*
X147231680Y-76021037D01*
X147059235Y-76075142D01*
X147059230Y-76075143D01*
X147053232Y-76077026D01*
X147047736Y-76080076D01*
X147047730Y-76080079D01*
X146889708Y-76167788D01*
X146889702Y-76167792D01*
X146884209Y-76170841D01*
X146879444Y-76174930D01*
X146879439Y-76174935D01*
X146742300Y-76292666D01*
X146742295Y-76292670D01*
X146737532Y-76296760D01*
X146733689Y-76301724D01*
X146733682Y-76301732D01*
X146623057Y-76444649D01*
X146619204Y-76449627D01*
X146616436Y-76455268D01*
X146616432Y-76455276D01*
X146536840Y-76617536D01*
X146534070Y-76623184D01*
X146532493Y-76629273D01*
X146532492Y-76629277D01*
X146498420Y-76760871D01*
X146485615Y-76810326D01*
X146485296Y-76816606D01*
X146485296Y-76816610D01*
X146476142Y-76997108D01*
X146476142Y-76997113D01*
X146475824Y-77003390D01*
X146476775Y-77009602D01*
X146476776Y-77009608D01*
X146504144Y-77188259D01*
X146504146Y-77188267D01*
X146505097Y-77194474D01*
X146507278Y-77200364D01*
X146507280Y-77200370D01*
X146528009Y-77256338D01*
X146572236Y-77375753D01*
X146575562Y-77381089D01*
X146575564Y-77381093D01*
X146663931Y-77522866D01*
X146674491Y-77539807D01*
X146678823Y-77544364D01*
X146801414Y-77673331D01*
X146807677Y-77679919D01*
X146966342Y-77790353D01*
X147143988Y-77866587D01*
X147333344Y-77905500D01*
X148275064Y-77905500D01*
X148278206Y-77905500D01*
X148422321Y-77890845D01*
X148425049Y-77889988D01*
X148476456Y-77890647D01*
X148524352Y-77913419D01*
X148558353Y-77954120D01*
X148572240Y-78005305D01*
X148901869Y-84671162D01*
X148886382Y-84737566D01*
X148838128Y-84785743D01*
X148771699Y-84801125D01*
X148707183Y-84779060D01*
X148693658Y-84769647D01*
X148687884Y-84767169D01*
X148687882Y-84767168D01*
X148521786Y-84695891D01*
X148521787Y-84695891D01*
X148516012Y-84693413D01*
X148509858Y-84692148D01*
X148509857Y-84692148D01*
X148332814Y-84655765D01*
X148332809Y-84655764D01*
X148326656Y-84654500D01*
X147381794Y-84654500D01*
X147378683Y-84654816D01*
X147378670Y-84654817D01*
X147243931Y-84668519D01*
X147243928Y-84668519D01*
X147237679Y-84669155D01*
X147231681Y-84671036D01*
X147231680Y-84671037D01*
X147059235Y-84725142D01*
X147059230Y-84725143D01*
X147053232Y-84727026D01*
X147047736Y-84730076D01*
X147047730Y-84730079D01*
X146889708Y-84817788D01*
X146889702Y-84817792D01*
X146884209Y-84820841D01*
X146879444Y-84824930D01*
X146879439Y-84824935D01*
X146742300Y-84942666D01*
X146742295Y-84942670D01*
X146737532Y-84946760D01*
X146733689Y-84951724D01*
X146733682Y-84951732D01*
X146623057Y-85094649D01*
X146619204Y-85099627D01*
X146616436Y-85105268D01*
X146616432Y-85105276D01*
X146536840Y-85267536D01*
X146534070Y-85273184D01*
X146532493Y-85279273D01*
X146532492Y-85279277D01*
X146508552Y-85371740D01*
X146485615Y-85460326D01*
X146485296Y-85466606D01*
X146485296Y-85466610D01*
X146476142Y-85647108D01*
X146476142Y-85647113D01*
X146475824Y-85653390D01*
X146476775Y-85659602D01*
X146476776Y-85659608D01*
X146504144Y-85838259D01*
X146504146Y-85838267D01*
X146505097Y-85844474D01*
X146507278Y-85850364D01*
X146507280Y-85850370D01*
X146563880Y-86003191D01*
X146572236Y-86025753D01*
X146575562Y-86031089D01*
X146575564Y-86031093D01*
X146669878Y-86182407D01*
X146674491Y-86189807D01*
X146807677Y-86329919D01*
X146966342Y-86440353D01*
X147143988Y-86516587D01*
X147333344Y-86555500D01*
X148275064Y-86555500D01*
X148278206Y-86555500D01*
X148422321Y-86540845D01*
X148606768Y-86482974D01*
X148775791Y-86389159D01*
X148786113Y-86380297D01*
X148848142Y-86351804D01*
X148915855Y-86360457D01*
X148968728Y-86403636D01*
X148990737Y-86468255D01*
X149196550Y-90630236D01*
X149183613Y-90691808D01*
X149142123Y-90739105D01*
X145526015Y-93182422D01*
X145468753Y-93203079D01*
X118114395Y-95898581D01*
X118114392Y-95898581D01*
X118100000Y-95900000D01*
X118098856Y-95914413D01*
X118098855Y-95914417D01*
X116104086Y-121048511D01*
X116090811Y-121095286D01*
X116060572Y-121133361D01*
X112233820Y-124371382D01*
X112197301Y-124392812D01*
X112155700Y-124400706D01*
X68364259Y-125098975D01*
X68306985Y-125085979D01*
X68262116Y-125048085D01*
X65616077Y-121422031D01*
X65594651Y-121373256D01*
X65593508Y-121367541D01*
X65533840Y-121069200D01*
X70049015Y-121069200D01*
X70049694Y-121075658D01*
X70049694Y-121075660D01*
X70067023Y-121240541D01*
X70067024Y-121240548D01*
X70067703Y-121247003D01*
X70122950Y-121417035D01*
X70126197Y-121422659D01*
X70126198Y-121422661D01*
X70207370Y-121563256D01*
X70212341Y-121571865D01*
X70331970Y-121704726D01*
X70476607Y-121809812D01*
X70591450Y-121860943D01*
X70633940Y-121879861D01*
X70639933Y-121882529D01*
X70646291Y-121883880D01*
X70646293Y-121883881D01*
X70657876Y-121886343D01*
X70814809Y-121919700D01*
X70987088Y-121919700D01*
X70993591Y-121919700D01*
X71168467Y-121882529D01*
X71331793Y-121809812D01*
X71476430Y-121704726D01*
X71596059Y-121571865D01*
X71685450Y-121417035D01*
X71740697Y-121247003D01*
X71759385Y-121069200D01*
X71740697Y-120891397D01*
X71685450Y-120721365D01*
X71621312Y-120610276D01*
X71604700Y-120548277D01*
X71604700Y-112845666D01*
X71610767Y-112807355D01*
X71622601Y-112784124D01*
X71621459Y-112783465D01*
X71655500Y-112724504D01*
X71710850Y-112628635D01*
X71766097Y-112458603D01*
X71784785Y-112280800D01*
X71766097Y-112102997D01*
X71710850Y-111932965D01*
X71646712Y-111821876D01*
X71630100Y-111759877D01*
X71630100Y-104191123D01*
X71646713Y-104129123D01*
X71648943Y-104125261D01*
X71710850Y-104018035D01*
X71766097Y-103848003D01*
X71784785Y-103670200D01*
X71766097Y-103492397D01*
X71710850Y-103322365D01*
X71646712Y-103211276D01*
X71630100Y-103149277D01*
X71630100Y-95453523D01*
X71646713Y-95391523D01*
X71710850Y-95280435D01*
X71766097Y-95110403D01*
X71784785Y-94932600D01*
X71766097Y-94754797D01*
X71710850Y-94584765D01*
X71621459Y-94429935D01*
X71615633Y-94423465D01*
X71551917Y-94352701D01*
X71501830Y-94297074D01*
X71432366Y-94246605D01*
X71362447Y-94195805D01*
X71362445Y-94195803D01*
X71357193Y-94191988D01*
X71272407Y-94154239D01*
X71199805Y-94121914D01*
X71199798Y-94121911D01*
X71193867Y-94119271D01*
X71187514Y-94117920D01*
X71187506Y-94117918D01*
X71025353Y-94083452D01*
X71025350Y-94083451D01*
X71018991Y-94082100D01*
X70840209Y-94082100D01*
X70833850Y-94083451D01*
X70833846Y-94083452D01*
X70671693Y-94117918D01*
X70671682Y-94117921D01*
X70665333Y-94119271D01*
X70659404Y-94121910D01*
X70659394Y-94121914D01*
X70507942Y-94189345D01*
X70507934Y-94189349D01*
X70502008Y-94191988D01*
X70496759Y-94195801D01*
X70496753Y-94195805D01*
X70362623Y-94293256D01*
X70362614Y-94293263D01*
X70357370Y-94297074D01*
X70353026Y-94301897D01*
X70353023Y-94301901D01*
X70242087Y-94425107D01*
X70242082Y-94425113D01*
X70237741Y-94429935D01*
X70234496Y-94435555D01*
X70234492Y-94435561D01*
X70151598Y-94579138D01*
X70151595Y-94579143D01*
X70148350Y-94584765D01*
X70146344Y-94590937D01*
X70146342Y-94590943D01*
X70103454Y-94722940D01*
X70093103Y-94754797D01*
X70092424Y-94761249D01*
X70092423Y-94761258D01*
X70077084Y-94907203D01*
X70074415Y-94932600D01*
X70075094Y-94939060D01*
X70092423Y-95103941D01*
X70092424Y-95103948D01*
X70093103Y-95110403D01*
X70148350Y-95280435D01*
X70207629Y-95383110D01*
X70212487Y-95391523D01*
X70229100Y-95453523D01*
X70229100Y-103149277D01*
X70212487Y-103211277D01*
X70151598Y-103316738D01*
X70151595Y-103316743D01*
X70148350Y-103322365D01*
X70146344Y-103328537D01*
X70146342Y-103328543D01*
X70106133Y-103452295D01*
X70093103Y-103492397D01*
X70092424Y-103498849D01*
X70092423Y-103498858D01*
X70083103Y-103587540D01*
X70074415Y-103670200D01*
X70075094Y-103676660D01*
X70092423Y-103841541D01*
X70092424Y-103841548D01*
X70093103Y-103848003D01*
X70148350Y-104018035D01*
X70208792Y-104122724D01*
X70212487Y-104129123D01*
X70229100Y-104191123D01*
X70229100Y-111759877D01*
X70212487Y-111821877D01*
X70151598Y-111927338D01*
X70151595Y-111927343D01*
X70148350Y-111932965D01*
X70146344Y-111939137D01*
X70146342Y-111939143D01*
X70106113Y-112062956D01*
X70093103Y-112102997D01*
X70092424Y-112109449D01*
X70092423Y-112109458D01*
X70075619Y-112269343D01*
X70074415Y-112280800D01*
X70075094Y-112287258D01*
X70075094Y-112287260D01*
X70092423Y-112452141D01*
X70092424Y-112452148D01*
X70093103Y-112458603D01*
X70148350Y-112628635D01*
X70183157Y-112688923D01*
X70187087Y-112695729D01*
X70203700Y-112757729D01*
X70203700Y-120548277D01*
X70187087Y-120610277D01*
X70126198Y-120715738D01*
X70126195Y-120715743D01*
X70122950Y-120721365D01*
X70120944Y-120727537D01*
X70120942Y-120727543D01*
X70069711Y-120885216D01*
X70067703Y-120891397D01*
X70067024Y-120897849D01*
X70067023Y-120897858D01*
X70051006Y-121050258D01*
X70049015Y-121069200D01*
X65533840Y-121069200D01*
X65501866Y-120909332D01*
X65499581Y-120890490D01*
X64082189Y-88684200D01*
X75408415Y-88684200D01*
X75409094Y-88690660D01*
X75426423Y-88855541D01*
X75426424Y-88855548D01*
X75427103Y-88862003D01*
X75482350Y-89032035D01*
X75485597Y-89037659D01*
X75485598Y-89037661D01*
X75546487Y-89143123D01*
X75563100Y-89205123D01*
X75563100Y-94398065D01*
X75546487Y-94460063D01*
X75533150Y-94483165D01*
X75531144Y-94489337D01*
X75531142Y-94489343D01*
X75481053Y-94643501D01*
X75477903Y-94653197D01*
X75477224Y-94659649D01*
X75477223Y-94659658D01*
X75467874Y-94748616D01*
X75459215Y-94831000D01*
X75459894Y-94837460D01*
X75477223Y-95002341D01*
X75477224Y-95002348D01*
X75477903Y-95008803D01*
X75479910Y-95014982D01*
X75479911Y-95014983D01*
X75518836Y-95134783D01*
X75533150Y-95178835D01*
X75593592Y-95283524D01*
X75597287Y-95289923D01*
X75613900Y-95351923D01*
X75613900Y-103187122D01*
X75607831Y-103225440D01*
X75557825Y-103379343D01*
X75554103Y-103390797D01*
X75553424Y-103397249D01*
X75553423Y-103397258D01*
X75540075Y-103524260D01*
X75535415Y-103568600D01*
X75536094Y-103575060D01*
X75553423Y-103739941D01*
X75553424Y-103739948D01*
X75554103Y-103746403D01*
X75609350Y-103916435D01*
X75666318Y-104015107D01*
X75673487Y-104027523D01*
X75690100Y-104089523D01*
X75690100Y-112102522D01*
X75684031Y-112140840D01*
X75636457Y-112287258D01*
X75630303Y-112306197D01*
X75629624Y-112312649D01*
X75629623Y-112312658D01*
X75614285Y-112458600D01*
X75611615Y-112484000D01*
X75612294Y-112490460D01*
X75629623Y-112655341D01*
X75629624Y-112655348D01*
X75630303Y-112661803D01*
X75632310Y-112667982D01*
X75632311Y-112667983D01*
X75670047Y-112784124D01*
X75685550Y-112831835D01*
X75688797Y-112837459D01*
X75688798Y-112837461D01*
X75749687Y-112942923D01*
X75766300Y-113004923D01*
X75766300Y-120649877D01*
X75749687Y-120711877D01*
X75688798Y-120817338D01*
X75688795Y-120817343D01*
X75685550Y-120822965D01*
X75683544Y-120829137D01*
X75683542Y-120829143D01*
X75632311Y-120986816D01*
X75630303Y-120992997D01*
X75629624Y-120999449D01*
X75629623Y-120999458D01*
X75619552Y-121095286D01*
X75611615Y-121170800D01*
X75612294Y-121177260D01*
X75629623Y-121342141D01*
X75629624Y-121342148D01*
X75630303Y-121348603D01*
X75685550Y-121518635D01*
X75688797Y-121524259D01*
X75688798Y-121524261D01*
X75748398Y-121627492D01*
X75774941Y-121673465D01*
X75779285Y-121678290D01*
X75779287Y-121678292D01*
X75806525Y-121708543D01*
X75894570Y-121806326D01*
X76039207Y-121911412D01*
X76202533Y-121984129D01*
X76208891Y-121985480D01*
X76208893Y-121985481D01*
X76218919Y-121987612D01*
X76377409Y-122021300D01*
X76549688Y-122021300D01*
X76556191Y-122021300D01*
X76731067Y-121984129D01*
X76894393Y-121911412D01*
X77039030Y-121806326D01*
X77158659Y-121673465D01*
X77248050Y-121518635D01*
X77303297Y-121348603D01*
X77321985Y-121170800D01*
X77303297Y-120992997D01*
X77248050Y-120822965D01*
X77183912Y-120711876D01*
X77167300Y-120649877D01*
X77167300Y-113004923D01*
X77183913Y-112942923D01*
X77228626Y-112865478D01*
X77248050Y-112831835D01*
X77303297Y-112661803D01*
X77321985Y-112484000D01*
X77303297Y-112306197D01*
X77248050Y-112136165D01*
X77158659Y-111981335D01*
X77122950Y-111941676D01*
X77099336Y-111903142D01*
X77091100Y-111858704D01*
X77091100Y-104089523D01*
X77107713Y-104027523D01*
X77113191Y-104018035D01*
X77171850Y-103916435D01*
X77227097Y-103746403D01*
X77245785Y-103568600D01*
X77227097Y-103390797D01*
X77171850Y-103220765D01*
X77082459Y-103065935D01*
X77046750Y-103026276D01*
X77023136Y-102987742D01*
X77014900Y-102943304D01*
X77014900Y-95351923D01*
X77031513Y-95289923D01*
X77033743Y-95286061D01*
X77095650Y-95178835D01*
X77150897Y-95008803D01*
X77169585Y-94831000D01*
X77150897Y-94653197D01*
X77095650Y-94483165D01*
X77006259Y-94328335D01*
X77001910Y-94323505D01*
X77001908Y-94323502D01*
X76995951Y-94316886D01*
X76972336Y-94278351D01*
X76964100Y-94233913D01*
X76964100Y-89205123D01*
X76980713Y-89143123D01*
X77044850Y-89032035D01*
X77100097Y-88862003D01*
X77118785Y-88684200D01*
X77100097Y-88506397D01*
X77044850Y-88336365D01*
X76955459Y-88181535D01*
X76835830Y-88048674D01*
X76762760Y-87995585D01*
X76696447Y-87947405D01*
X76696445Y-87947403D01*
X76691193Y-87943588D01*
X76603395Y-87904498D01*
X76533805Y-87873514D01*
X76533798Y-87873511D01*
X76527867Y-87870871D01*
X76521514Y-87869520D01*
X76521506Y-87869518D01*
X76359353Y-87835052D01*
X76359350Y-87835051D01*
X76352991Y-87833700D01*
X76174209Y-87833700D01*
X76167850Y-87835051D01*
X76167846Y-87835052D01*
X76005693Y-87869518D01*
X76005682Y-87869521D01*
X75999333Y-87870871D01*
X75993404Y-87873510D01*
X75993394Y-87873514D01*
X75841942Y-87940945D01*
X75841934Y-87940949D01*
X75836008Y-87943588D01*
X75830759Y-87947401D01*
X75830753Y-87947405D01*
X75696623Y-88044856D01*
X75696614Y-88044863D01*
X75691370Y-88048674D01*
X75687026Y-88053497D01*
X75687023Y-88053501D01*
X75576087Y-88176707D01*
X75576082Y-88176713D01*
X75571741Y-88181535D01*
X75568496Y-88187155D01*
X75568492Y-88187161D01*
X75485598Y-88330738D01*
X75485595Y-88330743D01*
X75482350Y-88336365D01*
X75480344Y-88342537D01*
X75480342Y-88342543D01*
X75438954Y-88469923D01*
X75427103Y-88506397D01*
X75426424Y-88512849D01*
X75426423Y-88512858D01*
X75414776Y-88623681D01*
X75408415Y-88684200D01*
X64082189Y-88684200D01*
X63702186Y-80049679D01*
X63709058Y-80003179D01*
X63732744Y-79962578D01*
X72503374Y-69939000D01*
X81377415Y-69939000D01*
X81378094Y-69945460D01*
X81395423Y-70110341D01*
X81395424Y-70110348D01*
X81396103Y-70116803D01*
X81398110Y-70122982D01*
X81398111Y-70122983D01*
X81432683Y-70229386D01*
X81451350Y-70286835D01*
X81454597Y-70292459D01*
X81454598Y-70292461D01*
X81515487Y-70397923D01*
X81532100Y-70459923D01*
X81532100Y-94145679D01*
X81531874Y-94153167D01*
X81528694Y-94205718D01*
X81528694Y-94205726D01*
X81528242Y-94213206D01*
X81529593Y-94220582D01*
X81529594Y-94220587D01*
X81539083Y-94272371D01*
X81540210Y-94279771D01*
X81546555Y-94332025D01*
X81546556Y-94332030D01*
X81547460Y-94339472D01*
X81550119Y-94346485D01*
X81550121Y-94346491D01*
X81551050Y-94348940D01*
X81557075Y-94370552D01*
X81557551Y-94373151D01*
X81557554Y-94373160D01*
X81558905Y-94380532D01*
X81561982Y-94387369D01*
X81561983Y-94387372D01*
X81583591Y-94435384D01*
X81586457Y-94442302D01*
X81607782Y-94498530D01*
X81612042Y-94504702D01*
X81612045Y-94504707D01*
X81613537Y-94506868D01*
X81624559Y-94526410D01*
X81625639Y-94528810D01*
X81625644Y-94528819D01*
X81628722Y-94535657D01*
X81633345Y-94541558D01*
X81633347Y-94541561D01*
X81665816Y-94583004D01*
X81670236Y-94589010D01*
X81704417Y-94638529D01*
X81749447Y-94678422D01*
X81754882Y-94683539D01*
X82177430Y-95106087D01*
X82198722Y-95134599D01*
X82208576Y-95161309D01*
X82208903Y-95161203D01*
X82248647Y-95283524D01*
X82264150Y-95331235D01*
X82277487Y-95354336D01*
X82294100Y-95416335D01*
X82294100Y-103098477D01*
X82277487Y-103160477D01*
X82216598Y-103265938D01*
X82216595Y-103265943D01*
X82213350Y-103271565D01*
X82211344Y-103277737D01*
X82211342Y-103277743D01*
X82160111Y-103435416D01*
X82158103Y-103441597D01*
X82157424Y-103448049D01*
X82157423Y-103448058D01*
X82145433Y-103562140D01*
X82139415Y-103619400D01*
X82140094Y-103625860D01*
X82157423Y-103790741D01*
X82157424Y-103790748D01*
X82158103Y-103797203D01*
X82213350Y-103967235D01*
X82248157Y-104027523D01*
X82252087Y-104034329D01*
X82268700Y-104096329D01*
X82268700Y-111963077D01*
X82252087Y-112025076D01*
X82239998Y-112046016D01*
X82191198Y-112130538D01*
X82191195Y-112130543D01*
X82187950Y-112136165D01*
X82185944Y-112142337D01*
X82185942Y-112142343D01*
X82138856Y-112287260D01*
X82132703Y-112306197D01*
X82132024Y-112312649D01*
X82132023Y-112312658D01*
X82116685Y-112458600D01*
X82114015Y-112484000D01*
X82114694Y-112490460D01*
X82132023Y-112655341D01*
X82132024Y-112655348D01*
X82132703Y-112661803D01*
X82134710Y-112667982D01*
X82134711Y-112667983D01*
X82186431Y-112827160D01*
X82192500Y-112865478D01*
X82192500Y-120599077D01*
X82175887Y-120661077D01*
X82114998Y-120766538D01*
X82114995Y-120766543D01*
X82111750Y-120772165D01*
X82109744Y-120778337D01*
X82109742Y-120778343D01*
X82058511Y-120936016D01*
X82056503Y-120942197D01*
X82055824Y-120948649D01*
X82055823Y-120948658D01*
X82038884Y-121109822D01*
X82037815Y-121120000D01*
X82038494Y-121126460D01*
X82055823Y-121291341D01*
X82055824Y-121291348D01*
X82056503Y-121297803D01*
X82111750Y-121467835D01*
X82114997Y-121473459D01*
X82114998Y-121473461D01*
X82188321Y-121600461D01*
X82201141Y-121622665D01*
X82320770Y-121755526D01*
X82465407Y-121860612D01*
X82628733Y-121933329D01*
X82635091Y-121934680D01*
X82635093Y-121934681D01*
X82645119Y-121936812D01*
X82803609Y-121970500D01*
X82975888Y-121970500D01*
X82982391Y-121970500D01*
X83157267Y-121933329D01*
X83320593Y-121860612D01*
X83465230Y-121755526D01*
X83584859Y-121622665D01*
X83674250Y-121467835D01*
X83729497Y-121297803D01*
X83748185Y-121120000D01*
X83729497Y-120942197D01*
X83674250Y-120772165D01*
X83610112Y-120661076D01*
X83593500Y-120599077D01*
X83593500Y-113109296D01*
X83601736Y-113064858D01*
X83625350Y-113026324D01*
X83626427Y-113025126D01*
X83661059Y-112986665D01*
X83750450Y-112831835D01*
X83805697Y-112661803D01*
X83824385Y-112484000D01*
X83805697Y-112306197D01*
X83750450Y-112136165D01*
X83686312Y-112025076D01*
X83669700Y-111963077D01*
X83669700Y-104184266D01*
X83675767Y-104145955D01*
X83687601Y-104122724D01*
X83686459Y-104122065D01*
X83720500Y-104063104D01*
X83775850Y-103967235D01*
X83831097Y-103797203D01*
X83849785Y-103619400D01*
X83831097Y-103441597D01*
X83775850Y-103271565D01*
X83711712Y-103160476D01*
X83695100Y-103098477D01*
X83695100Y-95580487D01*
X83703336Y-95536049D01*
X83726951Y-95497514D01*
X83732908Y-95490897D01*
X83737259Y-95486065D01*
X83826650Y-95331235D01*
X83881897Y-95161203D01*
X83900585Y-94983400D01*
X83881897Y-94805597D01*
X83826650Y-94635565D01*
X83737259Y-94480735D01*
X83718648Y-94460066D01*
X83653194Y-94387372D01*
X83617630Y-94347874D01*
X83542456Y-94293256D01*
X83478247Y-94246605D01*
X83478245Y-94246603D01*
X83472993Y-94242788D01*
X83389732Y-94205718D01*
X83315605Y-94172714D01*
X83315598Y-94172711D01*
X83309667Y-94170071D01*
X83303308Y-94168719D01*
X83303307Y-94168719D01*
X83235186Y-94154239D01*
X83201800Y-94141922D01*
X83173287Y-94120630D01*
X82969419Y-93916762D01*
X82942539Y-93876534D01*
X82933100Y-93829081D01*
X82933100Y-77609800D01*
X87295615Y-77609800D01*
X87296294Y-77616260D01*
X87313623Y-77781141D01*
X87313624Y-77781148D01*
X87314303Y-77787603D01*
X87316310Y-77793782D01*
X87316311Y-77793783D01*
X87362340Y-77935447D01*
X87369550Y-77957635D01*
X87372797Y-77963259D01*
X87372798Y-77963261D01*
X87438183Y-78076512D01*
X87458941Y-78112465D01*
X87463285Y-78117290D01*
X87463287Y-78117292D01*
X87490525Y-78147543D01*
X87578570Y-78245326D01*
X87723207Y-78350412D01*
X87854970Y-78409076D01*
X87878285Y-78419457D01*
X87886533Y-78423129D01*
X87961017Y-78438960D01*
X87994397Y-78451275D01*
X88022911Y-78472568D01*
X88201381Y-78651038D01*
X88228261Y-78691266D01*
X88237700Y-78738719D01*
X88237700Y-94411677D01*
X88221087Y-94473677D01*
X88160198Y-94579138D01*
X88160195Y-94579143D01*
X88156950Y-94584765D01*
X88154944Y-94590937D01*
X88154942Y-94590943D01*
X88112054Y-94722940D01*
X88101703Y-94754797D01*
X88101024Y-94761249D01*
X88101023Y-94761258D01*
X88085684Y-94907203D01*
X88083015Y-94932600D01*
X88083694Y-94939060D01*
X88101023Y-95103941D01*
X88101024Y-95103948D01*
X88101703Y-95110403D01*
X88156950Y-95280435D01*
X88216229Y-95383110D01*
X88221087Y-95391523D01*
X88237700Y-95453523D01*
X88237700Y-103338865D01*
X88221087Y-103400863D01*
X88207750Y-103423965D01*
X88205744Y-103430137D01*
X88205742Y-103430143D01*
X88162854Y-103562140D01*
X88152503Y-103593997D01*
X88151824Y-103600449D01*
X88151823Y-103600458D01*
X88136484Y-103746403D01*
X88133815Y-103771800D01*
X88134494Y-103778260D01*
X88151823Y-103943141D01*
X88151824Y-103943148D01*
X88152503Y-103949603D01*
X88154510Y-103955782D01*
X88154511Y-103955783D01*
X88187523Y-104057385D01*
X88207750Y-104119635D01*
X88263688Y-104216523D01*
X88271887Y-104230723D01*
X88288500Y-104292723D01*
X88288500Y-111977494D01*
X88282431Y-112015812D01*
X88268510Y-112058658D01*
X88254103Y-112102997D01*
X88253424Y-112109449D01*
X88253423Y-112109458D01*
X88236619Y-112269343D01*
X88235415Y-112280800D01*
X88236094Y-112287258D01*
X88236094Y-112287260D01*
X88253423Y-112452141D01*
X88253424Y-112452148D01*
X88254103Y-112458603D01*
X88309350Y-112628635D01*
X88312597Y-112634259D01*
X88312598Y-112634261D01*
X88373487Y-112739723D01*
X88390100Y-112801723D01*
X88390100Y-120656734D01*
X88384033Y-120695045D01*
X88372198Y-120718275D01*
X88373341Y-120718935D01*
X88287198Y-120868138D01*
X88287195Y-120868143D01*
X88283950Y-120873765D01*
X88281944Y-120879937D01*
X88281942Y-120879943D01*
X88230711Y-121037616D01*
X88228703Y-121043797D01*
X88228024Y-121050249D01*
X88228023Y-121050258D01*
X88214675Y-121177260D01*
X88210015Y-121221600D01*
X88210694Y-121228060D01*
X88228023Y-121392941D01*
X88228024Y-121392948D01*
X88228703Y-121399403D01*
X88230710Y-121405582D01*
X88230711Y-121405583D01*
X88274153Y-121539285D01*
X88283950Y-121569435D01*
X88287197Y-121575059D01*
X88287198Y-121575061D01*
X88359272Y-121699898D01*
X88373341Y-121724265D01*
X88377685Y-121729090D01*
X88377687Y-121729092D01*
X88404925Y-121759343D01*
X88492970Y-121857126D01*
X88637607Y-121962212D01*
X88800933Y-122034929D01*
X88807291Y-122036280D01*
X88807293Y-122036281D01*
X88842885Y-122043846D01*
X88975809Y-122072100D01*
X89148088Y-122072100D01*
X89154591Y-122072100D01*
X89329467Y-122034929D01*
X89492793Y-121962212D01*
X89637430Y-121857126D01*
X89757059Y-121724265D01*
X89846450Y-121569435D01*
X89901697Y-121399403D01*
X89920385Y-121221600D01*
X89901697Y-121043797D01*
X89846450Y-120873765D01*
X89807712Y-120806670D01*
X89791100Y-120744671D01*
X89791100Y-112801723D01*
X89807713Y-112739723D01*
X89833113Y-112695729D01*
X89871850Y-112628635D01*
X89927097Y-112458603D01*
X89945785Y-112280800D01*
X89927097Y-112102997D01*
X89871850Y-111932965D01*
X89782459Y-111778135D01*
X89721349Y-111710266D01*
X89697736Y-111671733D01*
X89689500Y-111627295D01*
X89689500Y-104292723D01*
X89706113Y-104230723D01*
X89711591Y-104221235D01*
X89770250Y-104119635D01*
X89825497Y-103949603D01*
X89844185Y-103771800D01*
X89825497Y-103593997D01*
X89770250Y-103423965D01*
X89680859Y-103269135D01*
X89676510Y-103264305D01*
X89676508Y-103264302D01*
X89670551Y-103257686D01*
X89646936Y-103219151D01*
X89638700Y-103174713D01*
X89638700Y-95453523D01*
X89655313Y-95391523D01*
X89719450Y-95280435D01*
X89774697Y-95110403D01*
X89793385Y-94932600D01*
X89774697Y-94754797D01*
X89719450Y-94584765D01*
X89655312Y-94473676D01*
X89638700Y-94411677D01*
X89638700Y-85921622D01*
X89656583Y-85857472D01*
X89705075Y-85811825D01*
X89770188Y-85797848D01*
X89833141Y-85819572D01*
X89875776Y-85870732D01*
X89889391Y-85900984D01*
X89892257Y-85907902D01*
X89898518Y-85924410D01*
X89913582Y-85964130D01*
X89917842Y-85970302D01*
X89917845Y-85970307D01*
X89919337Y-85972468D01*
X89930359Y-85992010D01*
X89931439Y-85994410D01*
X89931444Y-85994419D01*
X89934522Y-86001257D01*
X89939145Y-86007158D01*
X89939147Y-86007161D01*
X89953713Y-86025753D01*
X89970199Y-86046796D01*
X89971616Y-86048604D01*
X89976036Y-86054610D01*
X90010217Y-86104129D01*
X90055247Y-86144022D01*
X90060682Y-86149139D01*
X93967181Y-90055638D01*
X93994061Y-90095866D01*
X94003500Y-90143319D01*
X94003500Y-94423465D01*
X93986887Y-94485463D01*
X93973550Y-94508565D01*
X93971544Y-94514737D01*
X93971542Y-94514743D01*
X93920311Y-94672416D01*
X93918303Y-94678597D01*
X93917624Y-94685049D01*
X93917623Y-94685058D01*
X93902964Y-94824540D01*
X93899615Y-94856400D01*
X93900294Y-94862860D01*
X93917623Y-95027741D01*
X93917624Y-95027748D01*
X93918303Y-95034203D01*
X93920310Y-95040382D01*
X93920311Y-95040383D01*
X93950983Y-95134783D01*
X93973550Y-95204235D01*
X94029693Y-95301478D01*
X94037687Y-95315323D01*
X94054300Y-95377323D01*
X94054300Y-102996877D01*
X94037687Y-103058877D01*
X93976798Y-103164338D01*
X93976795Y-103164343D01*
X93973550Y-103169965D01*
X93971544Y-103176137D01*
X93971542Y-103176143D01*
X93920311Y-103333816D01*
X93918303Y-103339997D01*
X93917624Y-103346449D01*
X93917623Y-103346458D01*
X93902935Y-103486216D01*
X93899615Y-103517800D01*
X93900294Y-103524258D01*
X93900294Y-103524260D01*
X93917623Y-103689141D01*
X93917624Y-103689148D01*
X93918303Y-103695603D01*
X93920310Y-103701782D01*
X93920311Y-103701783D01*
X93960661Y-103825969D01*
X93973550Y-103865635D01*
X94029645Y-103962795D01*
X94037687Y-103976723D01*
X94054300Y-104038723D01*
X94054300Y-111981671D01*
X94037687Y-112043671D01*
X94002198Y-112105138D01*
X94002195Y-112105143D01*
X93998950Y-112110765D01*
X93996944Y-112116937D01*
X93996942Y-112116943D01*
X93945801Y-112274340D01*
X93943703Y-112280797D01*
X93943024Y-112287249D01*
X93943023Y-112287258D01*
X93931033Y-112401341D01*
X93925015Y-112458600D01*
X93925694Y-112465060D01*
X93943023Y-112629941D01*
X93943024Y-112629948D01*
X93943703Y-112636403D01*
X93945710Y-112642582D01*
X93945711Y-112642583D01*
X93991700Y-112784124D01*
X93998950Y-112806435D01*
X94002197Y-112812059D01*
X94002198Y-112812061D01*
X94063087Y-112917523D01*
X94079700Y-112979523D01*
X94079700Y-120605934D01*
X94073633Y-120644245D01*
X94061798Y-120667475D01*
X94062941Y-120668135D01*
X93976798Y-120817338D01*
X93976795Y-120817343D01*
X93973550Y-120822965D01*
X93971544Y-120829137D01*
X93971542Y-120829143D01*
X93920311Y-120986816D01*
X93918303Y-120992997D01*
X93917624Y-120999449D01*
X93917623Y-120999458D01*
X93907552Y-121095286D01*
X93899615Y-121170800D01*
X93900294Y-121177260D01*
X93917623Y-121342141D01*
X93917624Y-121342148D01*
X93918303Y-121348603D01*
X93973550Y-121518635D01*
X93976797Y-121524259D01*
X93976798Y-121524261D01*
X94036398Y-121627492D01*
X94062941Y-121673465D01*
X94067285Y-121678290D01*
X94067287Y-121678292D01*
X94094525Y-121708543D01*
X94182570Y-121806326D01*
X94327207Y-121911412D01*
X94490533Y-121984129D01*
X94496891Y-121985480D01*
X94496893Y-121985481D01*
X94506919Y-121987612D01*
X94665409Y-122021300D01*
X94837688Y-122021300D01*
X94844191Y-122021300D01*
X95019067Y-121984129D01*
X95182393Y-121911412D01*
X95327030Y-121806326D01*
X95446659Y-121673465D01*
X95536050Y-121518635D01*
X95591297Y-121348603D01*
X95609985Y-121170800D01*
X95591297Y-120992997D01*
X95536050Y-120822965D01*
X95497312Y-120755870D01*
X95480700Y-120693871D01*
X95480700Y-112979523D01*
X95497313Y-112917523D01*
X95527361Y-112865478D01*
X95561450Y-112806435D01*
X95616697Y-112636403D01*
X95635385Y-112458600D01*
X95616697Y-112280797D01*
X95561450Y-112110765D01*
X95472059Y-111955935D01*
X95473201Y-111955275D01*
X95461367Y-111932045D01*
X95455300Y-111893734D01*
X95455300Y-104038723D01*
X95471913Y-103976723D01*
X95477391Y-103967235D01*
X95536050Y-103865635D01*
X95591297Y-103695603D01*
X95609985Y-103517800D01*
X95591297Y-103339997D01*
X95536050Y-103169965D01*
X95471912Y-103058876D01*
X95455300Y-102996877D01*
X95455300Y-95377323D01*
X95471913Y-95315323D01*
X95476860Y-95306755D01*
X95536050Y-95204235D01*
X95591297Y-95034203D01*
X95609985Y-94856400D01*
X95591297Y-94678597D01*
X95536050Y-94508565D01*
X95446659Y-94353735D01*
X95442310Y-94348905D01*
X95442308Y-94348902D01*
X95436351Y-94342286D01*
X95412736Y-94303751D01*
X95404500Y-94259313D01*
X95404500Y-89861919D01*
X95418015Y-89805624D01*
X95455615Y-89761601D01*
X95509102Y-89739446D01*
X95566818Y-89743988D01*
X95616181Y-89774238D01*
X100058622Y-94216679D01*
X100087463Y-94261949D01*
X100094469Y-94315167D01*
X100078329Y-94366359D01*
X100072797Y-94375940D01*
X100072795Y-94375944D01*
X100069550Y-94381565D01*
X100067544Y-94387737D01*
X100067542Y-94387743D01*
X100017564Y-94541561D01*
X100014303Y-94551597D01*
X100013624Y-94558049D01*
X100013623Y-94558058D01*
X99998935Y-94697816D01*
X99995615Y-94729400D01*
X99996294Y-94735860D01*
X100013623Y-94900741D01*
X100013624Y-94900748D01*
X100014303Y-94907203D01*
X100069550Y-95077235D01*
X100124641Y-95172656D01*
X100133687Y-95188323D01*
X100150300Y-95250323D01*
X100150300Y-103244071D01*
X100133687Y-103306071D01*
X100098198Y-103367538D01*
X100098195Y-103367543D01*
X100094950Y-103373165D01*
X100092944Y-103379337D01*
X100092942Y-103379343D01*
X100041711Y-103537016D01*
X100039703Y-103543197D01*
X100039024Y-103549649D01*
X100039023Y-103549658D01*
X100024335Y-103689416D01*
X100021015Y-103721000D01*
X100021694Y-103727460D01*
X100039023Y-103892341D01*
X100039024Y-103892348D01*
X100039703Y-103898803D01*
X100041710Y-103904982D01*
X100041711Y-103904983D01*
X100091229Y-104057385D01*
X100094950Y-104068835D01*
X100098197Y-104074459D01*
X100098198Y-104074461D01*
X100159087Y-104179923D01*
X100175700Y-104241923D01*
X100175700Y-112090077D01*
X100159087Y-112152077D01*
X100098198Y-112257538D01*
X100098195Y-112257543D01*
X100094950Y-112263165D01*
X100092944Y-112269337D01*
X100092942Y-112269343D01*
X100041711Y-112427016D01*
X100039703Y-112433197D01*
X100039024Y-112439649D01*
X100039023Y-112439658D01*
X100035042Y-112477540D01*
X100021015Y-112611000D01*
X100021694Y-112617460D01*
X100039023Y-112782341D01*
X100039024Y-112782348D01*
X100039703Y-112788803D01*
X100094950Y-112958835D01*
X100098197Y-112964459D01*
X100098198Y-112964461D01*
X100121559Y-113004923D01*
X100156162Y-113064858D01*
X100159087Y-113069923D01*
X100175700Y-113131923D01*
X100175700Y-120675277D01*
X100159087Y-120737276D01*
X100146371Y-120759302D01*
X100098198Y-120842738D01*
X100098195Y-120842743D01*
X100094950Y-120848365D01*
X100092944Y-120854537D01*
X100092942Y-120854543D01*
X100041711Y-121012216D01*
X100039703Y-121018397D01*
X100039024Y-121024849D01*
X100039023Y-121024858D01*
X100022377Y-121183240D01*
X100021015Y-121196200D01*
X100021694Y-121202660D01*
X100039023Y-121367541D01*
X100039024Y-121367548D01*
X100039703Y-121374003D01*
X100094950Y-121544035D01*
X100098197Y-121549659D01*
X100098198Y-121549661D01*
X100166427Y-121667838D01*
X100184341Y-121698865D01*
X100188685Y-121703690D01*
X100188687Y-121703692D01*
X100225015Y-121744038D01*
X100303970Y-121831726D01*
X100448607Y-121936812D01*
X100611933Y-122009529D01*
X100618291Y-122010880D01*
X100618293Y-122010881D01*
X100653885Y-122018446D01*
X100786809Y-122046700D01*
X100959088Y-122046700D01*
X100965591Y-122046700D01*
X101140467Y-122009529D01*
X101303793Y-121936812D01*
X101448430Y-121831726D01*
X101568059Y-121698865D01*
X101657450Y-121544035D01*
X101712697Y-121374003D01*
X101731385Y-121196200D01*
X101712697Y-121018397D01*
X101657450Y-120848365D01*
X101593312Y-120737276D01*
X101576700Y-120675277D01*
X101576700Y-113131923D01*
X101593313Y-113069923D01*
X101657450Y-112958835D01*
X101712697Y-112788803D01*
X101731385Y-112611000D01*
X101712697Y-112433197D01*
X101657450Y-112263165D01*
X101593312Y-112152076D01*
X101576700Y-112090077D01*
X101576700Y-104241923D01*
X101593313Y-104179923D01*
X101607978Y-104154523D01*
X101657450Y-104068835D01*
X101712697Y-103898803D01*
X101731385Y-103721000D01*
X101712697Y-103543197D01*
X101657450Y-103373165D01*
X101568059Y-103218335D01*
X101569201Y-103217675D01*
X101557367Y-103194445D01*
X101551300Y-103156134D01*
X101551300Y-95250323D01*
X101567913Y-95188323D01*
X101573391Y-95178835D01*
X101632050Y-95077235D01*
X101687297Y-94907203D01*
X101705985Y-94729400D01*
X101687297Y-94551597D01*
X101632050Y-94381565D01*
X101567912Y-94270476D01*
X101551300Y-94208477D01*
X101551300Y-94043109D01*
X101551526Y-94035622D01*
X101554704Y-93983081D01*
X101555157Y-93975594D01*
X101544316Y-93916435D01*
X101543189Y-93909030D01*
X101542918Y-93906802D01*
X101535940Y-93849328D01*
X101533280Y-93842316D01*
X101533280Y-93842313D01*
X101532347Y-93839853D01*
X101526320Y-93818235D01*
X101524494Y-93808268D01*
X101499812Y-93753428D01*
X101496945Y-93746506D01*
X101478279Y-93697287D01*
X101475618Y-93690270D01*
X101471356Y-93684096D01*
X101471352Y-93684088D01*
X101469858Y-93681924D01*
X101458832Y-93662375D01*
X101457756Y-93659985D01*
X101454677Y-93653143D01*
X101417588Y-93605802D01*
X101413149Y-93599769D01*
X101383242Y-93556441D01*
X101383241Y-93556440D01*
X101378983Y-93550271D01*
X101333970Y-93510393D01*
X101328516Y-93505259D01*
X97428470Y-89605213D01*
X97396504Y-89550097D01*
X97396127Y-89486383D01*
X97427440Y-89430893D01*
X97482175Y-89398278D01*
X97532005Y-89397394D01*
X97532328Y-89394740D01*
X97592030Y-89401989D01*
X97599435Y-89403116D01*
X97615266Y-89406016D01*
X97658594Y-89413957D01*
X97718622Y-89410326D01*
X97726110Y-89410100D01*
X104852681Y-89410100D01*
X104900134Y-89419539D01*
X104940362Y-89446419D01*
X105803581Y-90309638D01*
X105830461Y-90349866D01*
X105839900Y-90397319D01*
X105839900Y-94347265D01*
X105823287Y-94409263D01*
X105809950Y-94432365D01*
X105807944Y-94438537D01*
X105807942Y-94438543D01*
X105756711Y-94596216D01*
X105754703Y-94602397D01*
X105754024Y-94608849D01*
X105754023Y-94608858D01*
X105744674Y-94697816D01*
X105736015Y-94780200D01*
X105736694Y-94786660D01*
X105754023Y-94951541D01*
X105754024Y-94951548D01*
X105754703Y-94958003D01*
X105756710Y-94964182D01*
X105756711Y-94964183D01*
X105802818Y-95106087D01*
X105809950Y-95128035D01*
X105844757Y-95188323D01*
X105848687Y-95195129D01*
X105865300Y-95257129D01*
X105865300Y-103073077D01*
X105848687Y-103135076D01*
X105834022Y-103160477D01*
X105787798Y-103240538D01*
X105787795Y-103240543D01*
X105784550Y-103246165D01*
X105782544Y-103252337D01*
X105782542Y-103252343D01*
X105731311Y-103410016D01*
X105729303Y-103416197D01*
X105728624Y-103422649D01*
X105728623Y-103422658D01*
X105714505Y-103556989D01*
X105710615Y-103594000D01*
X105711294Y-103600458D01*
X105711294Y-103600460D01*
X105728623Y-103765341D01*
X105728624Y-103765348D01*
X105729303Y-103771803D01*
X105784550Y-103941835D01*
X105840488Y-104038723D01*
X105848687Y-104052923D01*
X105865300Y-104114923D01*
X105865300Y-112038312D01*
X105848687Y-112100311D01*
X105842652Y-112110765D01*
X105776069Y-112226089D01*
X105776066Y-112226094D01*
X105772821Y-112231716D01*
X105770815Y-112237888D01*
X105770813Y-112237894D01*
X105716333Y-112405564D01*
X105716331Y-112405573D01*
X105714326Y-112411744D01*
X105713648Y-112418194D01*
X105713646Y-112418204D01*
X105697519Y-112571656D01*
X105694540Y-112600000D01*
X105695219Y-112606460D01*
X105713646Y-112781795D01*
X105713647Y-112781803D01*
X105714326Y-112788256D01*
X105716331Y-112794428D01*
X105716333Y-112794435D01*
X105770813Y-112962105D01*
X105772821Y-112968284D01*
X105776068Y-112973908D01*
X105776069Y-112973910D01*
X105848687Y-113099688D01*
X105865300Y-113161688D01*
X105865300Y-120726077D01*
X105848687Y-120788076D01*
X105832773Y-120815639D01*
X105787798Y-120893538D01*
X105787795Y-120893543D01*
X105784550Y-120899165D01*
X105782544Y-120905337D01*
X105782542Y-120905343D01*
X105734791Y-121052306D01*
X105729303Y-121069197D01*
X105728624Y-121075649D01*
X105728623Y-121075658D01*
X105716633Y-121189740D01*
X105710615Y-121247000D01*
X105711294Y-121253460D01*
X105728623Y-121418341D01*
X105728624Y-121418348D01*
X105729303Y-121424803D01*
X105731310Y-121430982D01*
X105731311Y-121430983D01*
X105777086Y-121571865D01*
X105784550Y-121594835D01*
X105787797Y-121600459D01*
X105787798Y-121600461D01*
X105856027Y-121718638D01*
X105873941Y-121749665D01*
X105878285Y-121754490D01*
X105878287Y-121754492D01*
X105920612Y-121801498D01*
X105993570Y-121882526D01*
X106138207Y-121987612D01*
X106301533Y-122060329D01*
X106307891Y-122061680D01*
X106307893Y-122061681D01*
X106343485Y-122069246D01*
X106476409Y-122097500D01*
X106648688Y-122097500D01*
X106655191Y-122097500D01*
X106830067Y-122060329D01*
X106993393Y-121987612D01*
X107138030Y-121882526D01*
X107257659Y-121749665D01*
X107347050Y-121594835D01*
X107402297Y-121424803D01*
X107420985Y-121247000D01*
X107402297Y-121069197D01*
X107347050Y-120899165D01*
X107282912Y-120788076D01*
X107266300Y-120726077D01*
X107266300Y-113253374D01*
X107274536Y-113208936D01*
X107298150Y-113170402D01*
X107305996Y-113161688D01*
X107332533Y-113132216D01*
X107427179Y-112968284D01*
X107485674Y-112788256D01*
X107505460Y-112600000D01*
X107491278Y-112465060D01*
X107486353Y-112418204D01*
X107486352Y-112418203D01*
X107485674Y-112411744D01*
X107427179Y-112231716D01*
X107332533Y-112067784D01*
X107310821Y-112043671D01*
X107298150Y-112029598D01*
X107274536Y-111991064D01*
X107266300Y-111946626D01*
X107266300Y-104114923D01*
X107282913Y-104052923D01*
X107288391Y-104043435D01*
X107304746Y-104015106D01*
X107345690Y-103972411D01*
X107401756Y-103953542D01*
X107460183Y-103962795D01*
X107507675Y-103998064D01*
X107532519Y-104049453D01*
X107532703Y-104051203D01*
X107534709Y-104057379D01*
X107534711Y-104057385D01*
X107575623Y-104183298D01*
X107587950Y-104221235D01*
X107591197Y-104226859D01*
X107591198Y-104226861D01*
X107629223Y-104292723D01*
X107677341Y-104376065D01*
X107796970Y-104508926D01*
X107941607Y-104614012D01*
X108104933Y-104686729D01*
X108111291Y-104688080D01*
X108111293Y-104688081D01*
X108146885Y-104695646D01*
X108279809Y-104723900D01*
X108452088Y-104723900D01*
X108458591Y-104723900D01*
X108633467Y-104686729D01*
X108796793Y-104614012D01*
X108941430Y-104508926D01*
X109061059Y-104376065D01*
X109150450Y-104221235D01*
X109205697Y-104051203D01*
X109224385Y-103873400D01*
X109205697Y-103695597D01*
X109150450Y-103525565D01*
X109086312Y-103414476D01*
X109069700Y-103352477D01*
X109069700Y-90995110D01*
X109069926Y-90987623D01*
X109073104Y-90935081D01*
X109073557Y-90927594D01*
X109062716Y-90868435D01*
X109061589Y-90861030D01*
X109061318Y-90858802D01*
X109054340Y-90801328D01*
X109051680Y-90794316D01*
X109051680Y-90794313D01*
X109050747Y-90791853D01*
X109044720Y-90770235D01*
X109042894Y-90760268D01*
X109018212Y-90705428D01*
X109015345Y-90698506D01*
X108996679Y-90649287D01*
X108994018Y-90642270D01*
X108989756Y-90636096D01*
X108989752Y-90636088D01*
X108988258Y-90633924D01*
X108977232Y-90614375D01*
X108976156Y-90611985D01*
X108973077Y-90605143D01*
X108935988Y-90557802D01*
X108931549Y-90551769D01*
X108901642Y-90508441D01*
X108901641Y-90508440D01*
X108897383Y-90502271D01*
X108852370Y-90462393D01*
X108846916Y-90457259D01*
X106021539Y-87631882D01*
X106016422Y-87626447D01*
X105976529Y-87581417D01*
X105970353Y-87577154D01*
X105964742Y-87572183D01*
X105965877Y-87570900D01*
X105931947Y-87531653D01*
X105919250Y-87470707D01*
X105937772Y-87411271D01*
X105982844Y-87368328D01*
X106043105Y-87352700D01*
X107082228Y-87352700D01*
X107166972Y-87352700D01*
X110923281Y-87352700D01*
X110970734Y-87362139D01*
X111010962Y-87389019D01*
X112534581Y-88912638D01*
X112561461Y-88952866D01*
X112570900Y-89000319D01*
X112570900Y-94360877D01*
X112554287Y-94422876D01*
X112548809Y-94432365D01*
X112493398Y-94528338D01*
X112493395Y-94528343D01*
X112490150Y-94533965D01*
X112488144Y-94540137D01*
X112488142Y-94540143D01*
X112436911Y-94697816D01*
X112434903Y-94703997D01*
X112434224Y-94710449D01*
X112434223Y-94710458D01*
X112424874Y-94799416D01*
X112416215Y-94881800D01*
X112416894Y-94888260D01*
X112434223Y-95053141D01*
X112434224Y-95053148D01*
X112434903Y-95059603D01*
X112436910Y-95065782D01*
X112436911Y-95065783D01*
X112459330Y-95134783D01*
X112490150Y-95229635D01*
X112545241Y-95325056D01*
X112554287Y-95340723D01*
X112570900Y-95402723D01*
X112570900Y-103174677D01*
X112554287Y-103236677D01*
X112493398Y-103342138D01*
X112493395Y-103342143D01*
X112490150Y-103347765D01*
X112488144Y-103353937D01*
X112488142Y-103353943D01*
X112437001Y-103511340D01*
X112434903Y-103517797D01*
X112434224Y-103524249D01*
X112434223Y-103524258D01*
X112424903Y-103612940D01*
X112416215Y-103695600D01*
X112416894Y-103702058D01*
X112416894Y-103702060D01*
X112434223Y-103866941D01*
X112434224Y-103866948D01*
X112434903Y-103873403D01*
X112436910Y-103879582D01*
X112436911Y-103879583D01*
X112480945Y-104015107D01*
X112490150Y-104043435D01*
X112546293Y-104140678D01*
X112554287Y-104154523D01*
X112570900Y-104216523D01*
X112570900Y-111709077D01*
X112554287Y-111771077D01*
X112493398Y-111876538D01*
X112493395Y-111876543D01*
X112490150Y-111882165D01*
X112488144Y-111888337D01*
X112488142Y-111888343D01*
X112437673Y-112043671D01*
X112434903Y-112052197D01*
X112434224Y-112058649D01*
X112434223Y-112058658D01*
X112425586Y-112140840D01*
X112416215Y-112230000D01*
X112416894Y-112236460D01*
X112434223Y-112401341D01*
X112434224Y-112401348D01*
X112434903Y-112407803D01*
X112436910Y-112413982D01*
X112436911Y-112413983D01*
X112438282Y-112418204D01*
X112490150Y-112577835D01*
X112493397Y-112583459D01*
X112493398Y-112583461D01*
X112554287Y-112688923D01*
X112570900Y-112750923D01*
X112570900Y-121144922D01*
X112564831Y-121183240D01*
X112513201Y-121342141D01*
X112511103Y-121348597D01*
X112510424Y-121355049D01*
X112510423Y-121355058D01*
X112499220Y-121461656D01*
X112492415Y-121526400D01*
X112493094Y-121532860D01*
X112510423Y-121697741D01*
X112510424Y-121697748D01*
X112511103Y-121704203D01*
X112513110Y-121710382D01*
X112513111Y-121710383D01*
X112562781Y-121863253D01*
X112566350Y-121874235D01*
X112569597Y-121879859D01*
X112569598Y-121879861D01*
X112650476Y-122019947D01*
X112655741Y-122029065D01*
X112660085Y-122033890D01*
X112660087Y-122033892D01*
X112716142Y-122096147D01*
X112775370Y-122161926D01*
X112920007Y-122267012D01*
X113083333Y-122339729D01*
X113089691Y-122341080D01*
X113089693Y-122341081D01*
X113125285Y-122348646D01*
X113258209Y-122376900D01*
X113430488Y-122376900D01*
X113436991Y-122376900D01*
X113611867Y-122339729D01*
X113775193Y-122267012D01*
X113919830Y-122161926D01*
X114039459Y-122029065D01*
X114128850Y-121874235D01*
X114184097Y-121704203D01*
X114202785Y-121526400D01*
X114184097Y-121348597D01*
X114128850Y-121178565D01*
X114039459Y-121023735D01*
X114003750Y-120984076D01*
X113980136Y-120945542D01*
X113971900Y-120901104D01*
X113971900Y-112750923D01*
X113988513Y-112688923D01*
X114004171Y-112661803D01*
X114052650Y-112577835D01*
X114107897Y-112407803D01*
X114126585Y-112230000D01*
X114107897Y-112052197D01*
X114052650Y-111882165D01*
X113988512Y-111771076D01*
X113971900Y-111709077D01*
X113971900Y-104216523D01*
X113988513Y-104154523D01*
X113993460Y-104145955D01*
X114052650Y-104043435D01*
X114107897Y-103873403D01*
X114126585Y-103695600D01*
X114107897Y-103517797D01*
X114052650Y-103347765D01*
X113988512Y-103236676D01*
X113971900Y-103174677D01*
X113971900Y-95402723D01*
X113988513Y-95340723D01*
X113993991Y-95331235D01*
X114052650Y-95229635D01*
X114107897Y-95059603D01*
X114126585Y-94881800D01*
X114107897Y-94703997D01*
X114052650Y-94533965D01*
X113988512Y-94422876D01*
X113971900Y-94360877D01*
X113971900Y-88683721D01*
X113972126Y-88676233D01*
X113975305Y-88623681D01*
X113975758Y-88616194D01*
X113964914Y-88557021D01*
X113963787Y-88549615D01*
X113959324Y-88512858D01*
X113956540Y-88489928D01*
X113952947Y-88480456D01*
X113946922Y-88458841D01*
X113945095Y-88448869D01*
X113920407Y-88394017D01*
X113917541Y-88387096D01*
X113896218Y-88330870D01*
X113890463Y-88322533D01*
X113879435Y-88302979D01*
X113878358Y-88300585D01*
X113878354Y-88300579D01*
X113875278Y-88293743D01*
X113838185Y-88246397D01*
X113833755Y-88240377D01*
X113799583Y-88190871D01*
X113754570Y-88150993D01*
X113749116Y-88145859D01*
X111777739Y-86174482D01*
X111772622Y-86169047D01*
X111732729Y-86124017D01*
X111683210Y-86089836D01*
X111677204Y-86085416D01*
X111635761Y-86052947D01*
X111635758Y-86052945D01*
X111629857Y-86048322D01*
X111623019Y-86045244D01*
X111623010Y-86045239D01*
X111620610Y-86044159D01*
X111601068Y-86033137D01*
X111598907Y-86031645D01*
X111598902Y-86031642D01*
X111592730Y-86027382D01*
X111536502Y-86006057D01*
X111529584Y-86003191D01*
X111481572Y-85981583D01*
X111481569Y-85981582D01*
X111474732Y-85978505D01*
X111467360Y-85977154D01*
X111467351Y-85977151D01*
X111464752Y-85976675D01*
X111443140Y-85970650D01*
X111440691Y-85969721D01*
X111440685Y-85969719D01*
X111433672Y-85967060D01*
X111426230Y-85966156D01*
X111426225Y-85966155D01*
X111373971Y-85959810D01*
X111366571Y-85958683D01*
X111314787Y-85949194D01*
X111314782Y-85949193D01*
X111307406Y-85947842D01*
X111299926Y-85948294D01*
X111299918Y-85948294D01*
X111247367Y-85951474D01*
X111239879Y-85951700D01*
X107166972Y-85951700D01*
X100231258Y-85951700D01*
X100174963Y-85938185D01*
X100130940Y-85900585D01*
X100108785Y-85847098D01*
X100113327Y-85789382D01*
X100143577Y-85740019D01*
X100230206Y-85653390D01*
X142155824Y-85653390D01*
X142156775Y-85659602D01*
X142156776Y-85659608D01*
X142184144Y-85838259D01*
X142184146Y-85838267D01*
X142185097Y-85844474D01*
X142187278Y-85850364D01*
X142187280Y-85850370D01*
X142243880Y-86003191D01*
X142252236Y-86025753D01*
X142255562Y-86031089D01*
X142255564Y-86031093D01*
X142349878Y-86182407D01*
X142354491Y-86189807D01*
X142487677Y-86329919D01*
X142646342Y-86440353D01*
X142823988Y-86516587D01*
X143013344Y-86555500D01*
X144255064Y-86555500D01*
X144258206Y-86555500D01*
X144402321Y-86540845D01*
X144586768Y-86482974D01*
X144755791Y-86389159D01*
X144902468Y-86263240D01*
X145020796Y-86110373D01*
X145105930Y-85936816D01*
X145154385Y-85749674D01*
X145164176Y-85556610D01*
X145134903Y-85365526D01*
X145067764Y-85184247D01*
X145015020Y-85099627D01*
X144968835Y-85025529D01*
X144968834Y-85025528D01*
X144965509Y-85020193D01*
X144832323Y-84880081D01*
X144673658Y-84769647D01*
X144667884Y-84767169D01*
X144667882Y-84767168D01*
X144603876Y-84739701D01*
X144556845Y-84704320D01*
X144531424Y-84651240D01*
X144533340Y-84592418D01*
X144557154Y-84550016D01*
X144556108Y-84549278D01*
X144574784Y-84522820D01*
X144643377Y-84425647D01*
X144694054Y-84283056D01*
X144704381Y-84132079D01*
X144673592Y-83983915D01*
X144603971Y-83849553D01*
X144555496Y-83797649D01*
X144506470Y-83745155D01*
X144506467Y-83745153D01*
X144500680Y-83738956D01*
X144493434Y-83734550D01*
X144493431Y-83734547D01*
X144378625Y-83664732D01*
X144378621Y-83664730D01*
X144371382Y-83660328D01*
X144363220Y-83658041D01*
X144233829Y-83621787D01*
X144233825Y-83621786D01*
X144225665Y-83619500D01*
X144112342Y-83619500D01*
X144108158Y-83620075D01*
X144108144Y-83620076D01*
X144008485Y-83633774D01*
X144008479Y-83633775D01*
X144000080Y-83634930D01*
X143992299Y-83638309D01*
X143992298Y-83638310D01*
X143869062Y-83691839D01*
X143869057Y-83691841D01*
X143861280Y-83695220D01*
X143854702Y-83700571D01*
X143854698Y-83700574D01*
X143750470Y-83785370D01*
X143750468Y-83785371D01*
X143743892Y-83790722D01*
X143739003Y-83797647D01*
X143739002Y-83797649D01*
X143706741Y-83843353D01*
X143656623Y-83914353D01*
X143653785Y-83922337D01*
X143653782Y-83922344D01*
X143608786Y-84048951D01*
X143608784Y-84048955D01*
X143605946Y-84056944D01*
X143605367Y-84065403D01*
X143605367Y-84065405D01*
X143596197Y-84199457D01*
X143596197Y-84199463D01*
X143595619Y-84207921D01*
X143597344Y-84216226D01*
X143597345Y-84216228D01*
X143624681Y-84347777D01*
X143624682Y-84347780D01*
X143626408Y-84356085D01*
X143630309Y-84363614D01*
X143630310Y-84363616D01*
X143687223Y-84473452D01*
X143701053Y-84534733D01*
X143683073Y-84594928D01*
X143637899Y-84638586D01*
X143577125Y-84654500D01*
X143061794Y-84654500D01*
X143058683Y-84654816D01*
X143058670Y-84654817D01*
X142923931Y-84668519D01*
X142923928Y-84668519D01*
X142917679Y-84669155D01*
X142911681Y-84671036D01*
X142911680Y-84671037D01*
X142739235Y-84725142D01*
X142739230Y-84725143D01*
X142733232Y-84727026D01*
X142727736Y-84730076D01*
X142727730Y-84730079D01*
X142569708Y-84817788D01*
X142569702Y-84817792D01*
X142564209Y-84820841D01*
X142559444Y-84824930D01*
X142559439Y-84824935D01*
X142422300Y-84942666D01*
X142422295Y-84942670D01*
X142417532Y-84946760D01*
X142413689Y-84951724D01*
X142413682Y-84951732D01*
X142303057Y-85094649D01*
X142299204Y-85099627D01*
X142296436Y-85105268D01*
X142296432Y-85105276D01*
X142216840Y-85267536D01*
X142214070Y-85273184D01*
X142212493Y-85279273D01*
X142212492Y-85279277D01*
X142188552Y-85371740D01*
X142165615Y-85460326D01*
X142165296Y-85466606D01*
X142165296Y-85466610D01*
X142156142Y-85647108D01*
X142156142Y-85647113D01*
X142155824Y-85653390D01*
X100230206Y-85653390D01*
X100360196Y-85523400D01*
X101023731Y-84859863D01*
X101029151Y-84854761D01*
X101074183Y-84814868D01*
X101108362Y-84765349D01*
X101112779Y-84759346D01*
X101149877Y-84711996D01*
X101154030Y-84702765D01*
X101165058Y-84683211D01*
X101170818Y-84674869D01*
X101192149Y-84618619D01*
X101195014Y-84611705D01*
X101199813Y-84601044D01*
X101219694Y-84556871D01*
X101221518Y-84546913D01*
X101227548Y-84525279D01*
X101231140Y-84515811D01*
X101238389Y-84456104D01*
X101239516Y-84448701D01*
X101250357Y-84389545D01*
X101246726Y-84329517D01*
X101246500Y-84322030D01*
X101246500Y-78159484D01*
X101260611Y-78102035D01*
X101299731Y-78057662D01*
X101354959Y-78036462D01*
X101413723Y-78043261D01*
X101462650Y-78076512D01*
X101523170Y-78143726D01*
X101667807Y-78248812D01*
X101831133Y-78321529D01*
X101837491Y-78322880D01*
X101837493Y-78322881D01*
X101873085Y-78330446D01*
X102006009Y-78358700D01*
X102178288Y-78358700D01*
X102184791Y-78358700D01*
X102359667Y-78321529D01*
X102522993Y-78248812D01*
X102529735Y-78243913D01*
X102545608Y-78232382D01*
X102580175Y-78214769D01*
X102618493Y-78208700D01*
X112586079Y-78208700D01*
X112593566Y-78208925D01*
X112653606Y-78212558D01*
X112712782Y-78201713D01*
X112720181Y-78200587D01*
X112779872Y-78193340D01*
X112789332Y-78189751D01*
X112810959Y-78183722D01*
X112820932Y-78181895D01*
X112875808Y-78157196D01*
X112882673Y-78154352D01*
X112938930Y-78133018D01*
X112947264Y-78127264D01*
X112966821Y-78116234D01*
X112976057Y-78112078D01*
X113023413Y-78074975D01*
X113029420Y-78070555D01*
X113078929Y-78036383D01*
X113118822Y-77991351D01*
X113123924Y-77985931D01*
X117208237Y-73901619D01*
X117248466Y-73874739D01*
X117295919Y-73865300D01*
X122308199Y-73865300D01*
X122370199Y-73881913D01*
X122415586Y-73927300D01*
X122478116Y-74035605D01*
X122485541Y-74048465D01*
X122605170Y-74181326D01*
X122749807Y-74286412D01*
X122913133Y-74359129D01*
X122919491Y-74360480D01*
X122919493Y-74360481D01*
X122955085Y-74368046D01*
X123088009Y-74396300D01*
X123260288Y-74396300D01*
X123266791Y-74396300D01*
X123441667Y-74359129D01*
X123604993Y-74286412D01*
X123749630Y-74181326D01*
X123869259Y-74048465D01*
X123873569Y-74041000D01*
X126279341Y-74041000D01*
X126279813Y-74046395D01*
X126298192Y-74256471D01*
X126299937Y-74276408D01*
X126301336Y-74281630D01*
X126301337Y-74281634D01*
X126359694Y-74499430D01*
X126359697Y-74499438D01*
X126361097Y-74504663D01*
X126363385Y-74509570D01*
X126363386Y-74509572D01*
X126458678Y-74713927D01*
X126458681Y-74713933D01*
X126460965Y-74718830D01*
X126464064Y-74723257D01*
X126464066Y-74723259D01*
X126593399Y-74907966D01*
X126593402Y-74907970D01*
X126596505Y-74912401D01*
X126600336Y-74916232D01*
X126718430Y-75034326D01*
X126749726Y-75087072D01*
X126751915Y-75148365D01*
X126724462Y-75203210D01*
X126674083Y-75238189D01*
X126558702Y-75281223D01*
X126542669Y-75287204D01*
X126535572Y-75292516D01*
X126535568Y-75292519D01*
X126434550Y-75368141D01*
X126434546Y-75368144D01*
X126427454Y-75373454D01*
X126422144Y-75380546D01*
X126422141Y-75380550D01*
X126346519Y-75481568D01*
X126346516Y-75481572D01*
X126341204Y-75488669D01*
X126338104Y-75496978D01*
X126338104Y-75496980D01*
X126293620Y-75616247D01*
X126293619Y-75616250D01*
X126290909Y-75623517D01*
X126290079Y-75631227D01*
X126290079Y-75631232D01*
X126284855Y-75679819D01*
X126284854Y-75679831D01*
X126284500Y-75683127D01*
X126284500Y-75686448D01*
X126284500Y-75686449D01*
X126284500Y-77475560D01*
X126284500Y-77475578D01*
X126284501Y-77478872D01*
X126284853Y-77482150D01*
X126284854Y-77482161D01*
X126290079Y-77530768D01*
X126290080Y-77530773D01*
X126290909Y-77538483D01*
X126293619Y-77545749D01*
X126293620Y-77545753D01*
X126319918Y-77616260D01*
X126341204Y-77673331D01*
X126346518Y-77680430D01*
X126346519Y-77680431D01*
X126421910Y-77781141D01*
X126427454Y-77788546D01*
X126542669Y-77874796D01*
X126677517Y-77925091D01*
X126737127Y-77931500D01*
X128532872Y-77931499D01*
X128592483Y-77925091D01*
X128727331Y-77874796D01*
X128842546Y-77788546D01*
X128928796Y-77673331D01*
X128979091Y-77538483D01*
X128985500Y-77478873D01*
X128985500Y-77003390D01*
X142155824Y-77003390D01*
X142156775Y-77009602D01*
X142156776Y-77009608D01*
X142184144Y-77188259D01*
X142184146Y-77188267D01*
X142185097Y-77194474D01*
X142187278Y-77200364D01*
X142187280Y-77200370D01*
X142208009Y-77256338D01*
X142252236Y-77375753D01*
X142255562Y-77381089D01*
X142255564Y-77381093D01*
X142343931Y-77522866D01*
X142354491Y-77539807D01*
X142358823Y-77544364D01*
X142481414Y-77673331D01*
X142487677Y-77679919D01*
X142646342Y-77790353D01*
X142823988Y-77866587D01*
X143013344Y-77905500D01*
X143578856Y-77905500D01*
X143643285Y-77923552D01*
X143688954Y-77972452D01*
X143702567Y-78037962D01*
X143680160Y-78101009D01*
X143662874Y-78125498D01*
X143656623Y-78134353D01*
X143653785Y-78142337D01*
X143653782Y-78142344D01*
X143608786Y-78268951D01*
X143608784Y-78268955D01*
X143605946Y-78276944D01*
X143605367Y-78285403D01*
X143605367Y-78285405D01*
X143596197Y-78419457D01*
X143596197Y-78419463D01*
X143595619Y-78427921D01*
X143597344Y-78436226D01*
X143597345Y-78436228D01*
X143624681Y-78567777D01*
X143624682Y-78567780D01*
X143626408Y-78576085D01*
X143696029Y-78710447D01*
X143701816Y-78716643D01*
X143701818Y-78716646D01*
X143793529Y-78814844D01*
X143793531Y-78814845D01*
X143799320Y-78821044D01*
X143806566Y-78825450D01*
X143806568Y-78825452D01*
X143921374Y-78895267D01*
X143928618Y-78899672D01*
X144074335Y-78940500D01*
X144183421Y-78940500D01*
X144187658Y-78940500D01*
X144299920Y-78925070D01*
X144438720Y-78864780D01*
X144556108Y-78769278D01*
X144643377Y-78645647D01*
X144694054Y-78503056D01*
X144704381Y-78352079D01*
X144673592Y-78203915D01*
X144603971Y-78069553D01*
X144587255Y-78051655D01*
X144567746Y-78030766D01*
X144560931Y-78023469D01*
X144532999Y-77975172D01*
X144529069Y-77919516D01*
X144549937Y-77867771D01*
X144591374Y-77830417D01*
X144755791Y-77739159D01*
X144902468Y-77613240D01*
X145020796Y-77460373D01*
X145105930Y-77286816D01*
X145154385Y-77099674D01*
X145164176Y-76906610D01*
X145134903Y-76715526D01*
X145067764Y-76534247D01*
X145015020Y-76449627D01*
X144968835Y-76375529D01*
X144968834Y-76375528D01*
X144965509Y-76370193D01*
X144847830Y-76246394D01*
X144836654Y-76234637D01*
X144836652Y-76234636D01*
X144832323Y-76230081D01*
X144673658Y-76119647D01*
X144667884Y-76117169D01*
X144667882Y-76117168D01*
X144501786Y-76045891D01*
X144501787Y-76045891D01*
X144496012Y-76043413D01*
X144489858Y-76042148D01*
X144489857Y-76042148D01*
X144312814Y-76005765D01*
X144312809Y-76005764D01*
X144306656Y-76004500D01*
X143061794Y-76004500D01*
X143058683Y-76004816D01*
X143058670Y-76004817D01*
X142923931Y-76018519D01*
X142923928Y-76018519D01*
X142917679Y-76019155D01*
X142911681Y-76021036D01*
X142911680Y-76021037D01*
X142739235Y-76075142D01*
X142739230Y-76075143D01*
X142733232Y-76077026D01*
X142727736Y-76080076D01*
X142727730Y-76080079D01*
X142569708Y-76167788D01*
X142569702Y-76167792D01*
X142564209Y-76170841D01*
X142559444Y-76174930D01*
X142559439Y-76174935D01*
X142422300Y-76292666D01*
X142422295Y-76292670D01*
X142417532Y-76296760D01*
X142413689Y-76301724D01*
X142413682Y-76301732D01*
X142303057Y-76444649D01*
X142299204Y-76449627D01*
X142296436Y-76455268D01*
X142296432Y-76455276D01*
X142216840Y-76617536D01*
X142214070Y-76623184D01*
X142212493Y-76629273D01*
X142212492Y-76629277D01*
X142178420Y-76760871D01*
X142165615Y-76810326D01*
X142165296Y-76816606D01*
X142165296Y-76816610D01*
X142156142Y-76997108D01*
X142156142Y-76997113D01*
X142155824Y-77003390D01*
X128985500Y-77003390D01*
X128985499Y-75683128D01*
X128979091Y-75623517D01*
X128928796Y-75488669D01*
X128842546Y-75373454D01*
X128727331Y-75287204D01*
X128637725Y-75253783D01*
X128595916Y-75238189D01*
X128545537Y-75203210D01*
X128518084Y-75148365D01*
X128520273Y-75087072D01*
X128551566Y-75034329D01*
X128673495Y-74912401D01*
X128809035Y-74718830D01*
X128908903Y-74504663D01*
X128970063Y-74276408D01*
X128990659Y-74041000D01*
X128970063Y-73805592D01*
X128908903Y-73577337D01*
X128809035Y-73363171D01*
X128673495Y-73169599D01*
X128506401Y-73002505D01*
X128501968Y-72999401D01*
X128501961Y-72999395D01*
X128320842Y-72872575D01*
X128281976Y-72828257D01*
X128267965Y-72771000D01*
X128281976Y-72713743D01*
X128320842Y-72669425D01*
X128501961Y-72542604D01*
X128501961Y-72542603D01*
X128506401Y-72539495D01*
X128673495Y-72372401D01*
X128809035Y-72178830D01*
X128908903Y-71964663D01*
X128970063Y-71736408D01*
X128990659Y-71501000D01*
X128970063Y-71265592D01*
X128908903Y-71037337D01*
X128809035Y-70823171D01*
X128673495Y-70629599D01*
X128506401Y-70462505D01*
X128501970Y-70459402D01*
X128501966Y-70459399D01*
X128317259Y-70330066D01*
X128317257Y-70330064D01*
X128312830Y-70326965D01*
X128307933Y-70324681D01*
X128307927Y-70324678D01*
X128103572Y-70229386D01*
X128103570Y-70229385D01*
X128098663Y-70227097D01*
X128093438Y-70225697D01*
X128093430Y-70225694D01*
X127875634Y-70167337D01*
X127875630Y-70167336D01*
X127870408Y-70165937D01*
X127865020Y-70165465D01*
X127865017Y-70165465D01*
X127640395Y-70145813D01*
X127635000Y-70145341D01*
X127629605Y-70145813D01*
X127404982Y-70165465D01*
X127404977Y-70165465D01*
X127399592Y-70165937D01*
X127394371Y-70167335D01*
X127394365Y-70167337D01*
X127176569Y-70225694D01*
X127176557Y-70225698D01*
X127171337Y-70227097D01*
X127166432Y-70229383D01*
X127166427Y-70229386D01*
X126962081Y-70324675D01*
X126962077Y-70324677D01*
X126957171Y-70326965D01*
X126952738Y-70330068D01*
X126952731Y-70330073D01*
X126768034Y-70459399D01*
X126768029Y-70459402D01*
X126763599Y-70462505D01*
X126759775Y-70466328D01*
X126759769Y-70466334D01*
X126600334Y-70625769D01*
X126600328Y-70625775D01*
X126596505Y-70629599D01*
X126593402Y-70634029D01*
X126593399Y-70634034D01*
X126464073Y-70818731D01*
X126464068Y-70818738D01*
X126460965Y-70823171D01*
X126458677Y-70828077D01*
X126458675Y-70828081D01*
X126363386Y-71032427D01*
X126363383Y-71032432D01*
X126361097Y-71037337D01*
X126359698Y-71042557D01*
X126359694Y-71042569D01*
X126301337Y-71260365D01*
X126301335Y-71260371D01*
X126299937Y-71265592D01*
X126279341Y-71501000D01*
X126279813Y-71506395D01*
X126298192Y-71716471D01*
X126299937Y-71736408D01*
X126301336Y-71741630D01*
X126301337Y-71741634D01*
X126359694Y-71959430D01*
X126359697Y-71959438D01*
X126361097Y-71964663D01*
X126363385Y-71969570D01*
X126363386Y-71969572D01*
X126458678Y-72173927D01*
X126458681Y-72173933D01*
X126460965Y-72178830D01*
X126464064Y-72183257D01*
X126464066Y-72183259D01*
X126593399Y-72367966D01*
X126593402Y-72367970D01*
X126596505Y-72372401D01*
X126763599Y-72539495D01*
X126768032Y-72542599D01*
X126768038Y-72542604D01*
X126949158Y-72669425D01*
X126988024Y-72713743D01*
X127002035Y-72771000D01*
X126988024Y-72828257D01*
X126949159Y-72872575D01*
X126768041Y-72999395D01*
X126763599Y-73002505D01*
X126759775Y-73006328D01*
X126759769Y-73006334D01*
X126600334Y-73165769D01*
X126600328Y-73165775D01*
X126596505Y-73169599D01*
X126593402Y-73174029D01*
X126593399Y-73174034D01*
X126464073Y-73358731D01*
X126464068Y-73358738D01*
X126460965Y-73363171D01*
X126458677Y-73368077D01*
X126458675Y-73368081D01*
X126363386Y-73572427D01*
X126363383Y-73572432D01*
X126361097Y-73577337D01*
X126359698Y-73582557D01*
X126359694Y-73582569D01*
X126301337Y-73800365D01*
X126301335Y-73800371D01*
X126299937Y-73805592D01*
X126299465Y-73810977D01*
X126299465Y-73810982D01*
X126287970Y-73942373D01*
X126279341Y-74041000D01*
X123873569Y-74041000D01*
X123958650Y-73893635D01*
X124013897Y-73723603D01*
X124032585Y-73545800D01*
X124013897Y-73367997D01*
X123958650Y-73197965D01*
X123869259Y-73043135D01*
X123749630Y-72910274D01*
X123690021Y-72866965D01*
X123610247Y-72809005D01*
X123610245Y-72809003D01*
X123604993Y-72805188D01*
X123528205Y-72771000D01*
X123447605Y-72735114D01*
X123447598Y-72735111D01*
X123441667Y-72732471D01*
X123435313Y-72731120D01*
X123435309Y-72731119D01*
X123367755Y-72716760D01*
X123331106Y-72702606D01*
X123300723Y-72677698D01*
X123293394Y-72669425D01*
X123264329Y-72636617D01*
X123214810Y-72602436D01*
X123208804Y-72598016D01*
X123167361Y-72565547D01*
X123167358Y-72565545D01*
X123161457Y-72560922D01*
X123154619Y-72557844D01*
X123154610Y-72557839D01*
X123152210Y-72556759D01*
X123132668Y-72545737D01*
X123130507Y-72544245D01*
X123130502Y-72544242D01*
X123124330Y-72539982D01*
X123097446Y-72529786D01*
X123068102Y-72518657D01*
X123061184Y-72515791D01*
X123013172Y-72494183D01*
X123013169Y-72494182D01*
X123006332Y-72491105D01*
X122998960Y-72489754D01*
X122998951Y-72489751D01*
X122996352Y-72489275D01*
X122974740Y-72483250D01*
X122972291Y-72482321D01*
X122972285Y-72482319D01*
X122965272Y-72479660D01*
X122957830Y-72478756D01*
X122957825Y-72478755D01*
X122905571Y-72472410D01*
X122898171Y-72471283D01*
X122846387Y-72461794D01*
X122846382Y-72461793D01*
X122839006Y-72460442D01*
X122831526Y-72460894D01*
X122831518Y-72460894D01*
X122778967Y-72464074D01*
X122771479Y-72464300D01*
X116979310Y-72464300D01*
X116971823Y-72464074D01*
X116919281Y-72460895D01*
X116919273Y-72460895D01*
X116911794Y-72460443D01*
X116904419Y-72461794D01*
X116904409Y-72461795D01*
X116852642Y-72471281D01*
X116845243Y-72472408D01*
X116792967Y-72478756D01*
X116792961Y-72478757D01*
X116785528Y-72479660D01*
X116778523Y-72482316D01*
X116778512Y-72482319D01*
X116776039Y-72483257D01*
X116754441Y-72489278D01*
X116751851Y-72489752D01*
X116751844Y-72489754D01*
X116744468Y-72491106D01*
X116737627Y-72494184D01*
X116737623Y-72494186D01*
X116689628Y-72515786D01*
X116682713Y-72518650D01*
X116633481Y-72537322D01*
X116633473Y-72537325D01*
X116626470Y-72539982D01*
X116620309Y-72544234D01*
X116620298Y-72544240D01*
X116618125Y-72545741D01*
X116598588Y-72556760D01*
X116596178Y-72557844D01*
X116596168Y-72557849D01*
X116589343Y-72560922D01*
X116583448Y-72565539D01*
X116583440Y-72565545D01*
X116541997Y-72598013D01*
X116535968Y-72602449D01*
X116492648Y-72632351D01*
X116492636Y-72632360D01*
X116486471Y-72636617D01*
X116481502Y-72642225D01*
X116481496Y-72642231D01*
X116446584Y-72681638D01*
X116441451Y-72687090D01*
X112357162Y-76771381D01*
X112316934Y-76798261D01*
X112269481Y-76807700D01*
X102618493Y-76807700D01*
X102580175Y-76801631D01*
X102545608Y-76784018D01*
X102528252Y-76771408D01*
X102528245Y-76771404D01*
X102522993Y-76767588D01*
X102463064Y-76740906D01*
X102365605Y-76697514D01*
X102365598Y-76697511D01*
X102359667Y-76694871D01*
X102353314Y-76693520D01*
X102353306Y-76693518D01*
X102191153Y-76659052D01*
X102191150Y-76659051D01*
X102184791Y-76657700D01*
X102006009Y-76657700D01*
X101999650Y-76659051D01*
X101999646Y-76659052D01*
X101837493Y-76693518D01*
X101837482Y-76693521D01*
X101831133Y-76694871D01*
X101825204Y-76697510D01*
X101825194Y-76697514D01*
X101673742Y-76764945D01*
X101673734Y-76764949D01*
X101667808Y-76767588D01*
X101662559Y-76771401D01*
X101662553Y-76771405D01*
X101528423Y-76868856D01*
X101528414Y-76868863D01*
X101523170Y-76872674D01*
X101518826Y-76877497D01*
X101518823Y-76877501D01*
X101462650Y-76939888D01*
X101413723Y-76973139D01*
X101354959Y-76979938D01*
X101299731Y-76958738D01*
X101260611Y-76914365D01*
X101246500Y-76856916D01*
X101246500Y-69215323D01*
X101263113Y-69153323D01*
X101299758Y-69089852D01*
X101327250Y-69042235D01*
X101382497Y-68872203D01*
X101395978Y-68743938D01*
X101416498Y-68687560D01*
X101461084Y-68647415D01*
X101519299Y-68632900D01*
X116507507Y-68632900D01*
X116545825Y-68638969D01*
X116580392Y-68656582D01*
X116597747Y-68669191D01*
X116597751Y-68669193D01*
X116603007Y-68673012D01*
X116734770Y-68731676D01*
X116744274Y-68735908D01*
X116766333Y-68745729D01*
X116772691Y-68747080D01*
X116772693Y-68747081D01*
X116808285Y-68754646D01*
X116941209Y-68782900D01*
X117113488Y-68782900D01*
X117119991Y-68782900D01*
X117294867Y-68745729D01*
X117458193Y-68673012D01*
X117602830Y-68567926D01*
X117722459Y-68435065D01*
X117811850Y-68280235D01*
X117867097Y-68110203D01*
X117885785Y-67932400D01*
X117867097Y-67754597D01*
X117811850Y-67584565D01*
X117722459Y-67429735D01*
X117699482Y-67404217D01*
X117616306Y-67311841D01*
X117602830Y-67296874D01*
X117584270Y-67283389D01*
X117463447Y-67195605D01*
X117463445Y-67195603D01*
X117458193Y-67191788D01*
X117398264Y-67165106D01*
X117300805Y-67121714D01*
X117300798Y-67121711D01*
X117294867Y-67119071D01*
X117288514Y-67117720D01*
X117288506Y-67117718D01*
X117126353Y-67083252D01*
X117126350Y-67083251D01*
X117119991Y-67081900D01*
X116941209Y-67081900D01*
X116934850Y-67083251D01*
X116934846Y-67083252D01*
X116772693Y-67117718D01*
X116772682Y-67117721D01*
X116766333Y-67119071D01*
X116760404Y-67121710D01*
X116760394Y-67121714D01*
X116608942Y-67189145D01*
X116608934Y-67189149D01*
X116603008Y-67191788D01*
X116597759Y-67195601D01*
X116597748Y-67195608D01*
X116580393Y-67208218D01*
X116545826Y-67225831D01*
X116507508Y-67231900D01*
X95008321Y-67231900D01*
X95000833Y-67231674D01*
X94948281Y-67228494D01*
X94948273Y-67228494D01*
X94940794Y-67228042D01*
X94933418Y-67229393D01*
X94933410Y-67229394D01*
X94881626Y-67238883D01*
X94874227Y-67240010D01*
X94821969Y-67246356D01*
X94821965Y-67246356D01*
X94814528Y-67247260D01*
X94807519Y-67249917D01*
X94807514Y-67249919D01*
X94805043Y-67250856D01*
X94783453Y-67256874D01*
X94780849Y-67257351D01*
X94780839Y-67257353D01*
X94773468Y-67258705D01*
X94766635Y-67261779D01*
X94766629Y-67261782D01*
X94718619Y-67283389D01*
X94711705Y-67286253D01*
X94662480Y-67304922D01*
X94662470Y-67304926D01*
X94655470Y-67307582D01*
X94649304Y-67311837D01*
X94649298Y-67311841D01*
X94647127Y-67313340D01*
X94627585Y-67324362D01*
X94625183Y-67325443D01*
X94625180Y-67325444D01*
X94618343Y-67328522D01*
X94612443Y-67333143D01*
X94612435Y-67333149D01*
X94570997Y-67365613D01*
X94564968Y-67370049D01*
X94521648Y-67399951D01*
X94521636Y-67399960D01*
X94515471Y-67404217D01*
X94510502Y-67409825D01*
X94510496Y-67409831D01*
X94475584Y-67449238D01*
X94470451Y-67454690D01*
X92721911Y-69203230D01*
X92693398Y-69224522D01*
X92660013Y-69236839D01*
X92595281Y-69250599D01*
X92585533Y-69252671D01*
X92579604Y-69255310D01*
X92579600Y-69255312D01*
X92428142Y-69322745D01*
X92428134Y-69322749D01*
X92422208Y-69325388D01*
X92416959Y-69329201D01*
X92416953Y-69329205D01*
X92282823Y-69426656D01*
X92282814Y-69426663D01*
X92277570Y-69430474D01*
X92273226Y-69435297D01*
X92273223Y-69435301D01*
X92162287Y-69558507D01*
X92162282Y-69558513D01*
X92157941Y-69563335D01*
X92154696Y-69568955D01*
X92154692Y-69568961D01*
X92071798Y-69712538D01*
X92071795Y-69712543D01*
X92068550Y-69718165D01*
X92066544Y-69724337D01*
X92066542Y-69724343D01*
X92050877Y-69772556D01*
X92013303Y-69888197D01*
X92012624Y-69894649D01*
X92012623Y-69894658D01*
X91998087Y-70032967D01*
X91994615Y-70066000D01*
X91995294Y-70072460D01*
X92012623Y-70237341D01*
X92012624Y-70237348D01*
X92013303Y-70243803D01*
X92068550Y-70413835D01*
X92071797Y-70419459D01*
X92071798Y-70419461D01*
X92154657Y-70562978D01*
X92157941Y-70568665D01*
X92277570Y-70701526D01*
X92422207Y-70806612D01*
X92585533Y-70879329D01*
X92591891Y-70880680D01*
X92591893Y-70880681D01*
X92627485Y-70888246D01*
X92760409Y-70916500D01*
X92932688Y-70916500D01*
X92939191Y-70916500D01*
X93114067Y-70879329D01*
X93277393Y-70806612D01*
X93422030Y-70701526D01*
X93541659Y-70568665D01*
X93631050Y-70413835D01*
X93686297Y-70243803D01*
X93686624Y-70243909D01*
X93696472Y-70217209D01*
X93717765Y-70188690D01*
X95237237Y-68669219D01*
X95277466Y-68642339D01*
X95324919Y-68632900D01*
X99572701Y-68632900D01*
X99630916Y-68647415D01*
X99675502Y-68687560D01*
X99696022Y-68743939D01*
X99708823Y-68865740D01*
X99708824Y-68865746D01*
X99709503Y-68872203D01*
X99711510Y-68878382D01*
X99711511Y-68878383D01*
X99746549Y-68986220D01*
X99764750Y-69042235D01*
X99767997Y-69047859D01*
X99767998Y-69047861D01*
X99828887Y-69153323D01*
X99845500Y-69215323D01*
X99845500Y-84005420D01*
X99836061Y-84052873D01*
X99809181Y-84093101D01*
X98022890Y-85879390D01*
X98017438Y-85884523D01*
X97978031Y-85919435D01*
X97978025Y-85919441D01*
X97972417Y-85924410D01*
X97968160Y-85930575D01*
X97968151Y-85930587D01*
X97938249Y-85973907D01*
X97933813Y-85979936D01*
X97901349Y-86021374D01*
X97901343Y-86021382D01*
X97896722Y-86027282D01*
X97893644Y-86034119D01*
X97893643Y-86034122D01*
X97892562Y-86036524D01*
X97881540Y-86056066D01*
X97880041Y-86058237D01*
X97880037Y-86058243D01*
X97875782Y-86064409D01*
X97873126Y-86071409D01*
X97873122Y-86071419D01*
X97854453Y-86120644D01*
X97851589Y-86127558D01*
X97829982Y-86175568D01*
X97829979Y-86175574D01*
X97826905Y-86182407D01*
X97825553Y-86189778D01*
X97825551Y-86189788D01*
X97825074Y-86192392D01*
X97819056Y-86213982D01*
X97818119Y-86216453D01*
X97818117Y-86216458D01*
X97815460Y-86223467D01*
X97814556Y-86230904D01*
X97814556Y-86230908D01*
X97808210Y-86283166D01*
X97807083Y-86290565D01*
X97797594Y-86342349D01*
X97797593Y-86342357D01*
X97796242Y-86349733D01*
X97796694Y-86357212D01*
X97796694Y-86357220D01*
X97799874Y-86409772D01*
X97800100Y-86417260D01*
X97800100Y-87045679D01*
X97799874Y-87053167D01*
X97796694Y-87105718D01*
X97796694Y-87105726D01*
X97796242Y-87113206D01*
X97797593Y-87120582D01*
X97797594Y-87120587D01*
X97807083Y-87172371D01*
X97808210Y-87179771D01*
X97814555Y-87232025D01*
X97814556Y-87232030D01*
X97815460Y-87239472D01*
X97818119Y-87246485D01*
X97818121Y-87246491D01*
X97819050Y-87248940D01*
X97825075Y-87270552D01*
X97825551Y-87273151D01*
X97825554Y-87273160D01*
X97826905Y-87280532D01*
X97829982Y-87287369D01*
X97829983Y-87287372D01*
X97851591Y-87335384D01*
X97854457Y-87342302D01*
X97875782Y-87398530D01*
X97880042Y-87404702D01*
X97880045Y-87404707D01*
X97881537Y-87406868D01*
X97892559Y-87426410D01*
X97893639Y-87428810D01*
X97893644Y-87428819D01*
X97896722Y-87435657D01*
X97901345Y-87441558D01*
X97901347Y-87441561D01*
X97933816Y-87483004D01*
X97938236Y-87489010D01*
X97972417Y-87538529D01*
X98017447Y-87578422D01*
X98022882Y-87583539D01*
X98236762Y-87797419D01*
X98267012Y-87846782D01*
X98271554Y-87904498D01*
X98249399Y-87957985D01*
X98205376Y-87995585D01*
X98149081Y-88009100D01*
X98042719Y-88009100D01*
X97995266Y-87999661D01*
X97955038Y-87972781D01*
X93967619Y-83985362D01*
X93940739Y-83945134D01*
X93931300Y-83897681D01*
X93931300Y-82296323D01*
X93947913Y-82234323D01*
X94012050Y-82123235D01*
X94067297Y-81953203D01*
X94085985Y-81775400D01*
X94067297Y-81597597D01*
X94012050Y-81427565D01*
X93922659Y-81272735D01*
X93803030Y-81139874D01*
X93789291Y-81129892D01*
X93663647Y-81038605D01*
X93663645Y-81038603D01*
X93658393Y-81034788D01*
X93598464Y-81008106D01*
X93501005Y-80964714D01*
X93500998Y-80964711D01*
X93495067Y-80962071D01*
X93488714Y-80960720D01*
X93488706Y-80960718D01*
X93326553Y-80926252D01*
X93326550Y-80926251D01*
X93320191Y-80924900D01*
X93141409Y-80924900D01*
X93135050Y-80926251D01*
X93135046Y-80926252D01*
X92972893Y-80960718D01*
X92972882Y-80960721D01*
X92966533Y-80962071D01*
X92960598Y-80964713D01*
X92954414Y-80966723D01*
X92953942Y-80965272D01*
X92902572Y-80974100D01*
X92844765Y-80954477D01*
X92803327Y-80909650D01*
X92788300Y-80850482D01*
X92788300Y-76313921D01*
X92788526Y-76306433D01*
X92791705Y-76253881D01*
X92792158Y-76246394D01*
X92781314Y-76187221D01*
X92780187Y-76179815D01*
X92778727Y-76167788D01*
X92772940Y-76120128D01*
X92769347Y-76110656D01*
X92763322Y-76089041D01*
X92761495Y-76079069D01*
X92736809Y-76024220D01*
X92733942Y-76017298D01*
X92715280Y-75968090D01*
X92712618Y-75961070D01*
X92706859Y-75952727D01*
X92695833Y-75933177D01*
X92694756Y-75930784D01*
X92691678Y-75923944D01*
X92654591Y-75876605D01*
X92650153Y-75870574D01*
X92620246Y-75827247D01*
X92615983Y-75821071D01*
X92610368Y-75816097D01*
X92610365Y-75816093D01*
X92570970Y-75781193D01*
X92565516Y-75776059D01*
X89196569Y-72407112D01*
X89175274Y-72378593D01*
X89165425Y-72351890D01*
X89165097Y-72351997D01*
X89109850Y-72181965D01*
X89020459Y-72027135D01*
X88900830Y-71894274D01*
X88756193Y-71789188D01*
X88696264Y-71762506D01*
X88598805Y-71719114D01*
X88598798Y-71719111D01*
X88592867Y-71716471D01*
X88586514Y-71715120D01*
X88586506Y-71715118D01*
X88424353Y-71680652D01*
X88424350Y-71680651D01*
X88417991Y-71679300D01*
X88239209Y-71679300D01*
X88232850Y-71680651D01*
X88232846Y-71680652D01*
X88070693Y-71715118D01*
X88070682Y-71715121D01*
X88064333Y-71716471D01*
X88058404Y-71719110D01*
X88058394Y-71719114D01*
X87906942Y-71786545D01*
X87906934Y-71786549D01*
X87901008Y-71789188D01*
X87895759Y-71793001D01*
X87895753Y-71793005D01*
X87761623Y-71890456D01*
X87761614Y-71890463D01*
X87756370Y-71894274D01*
X87752026Y-71899097D01*
X87752023Y-71899101D01*
X87641087Y-72022307D01*
X87641082Y-72022313D01*
X87636741Y-72027135D01*
X87633496Y-72032755D01*
X87633492Y-72032761D01*
X87550598Y-72176338D01*
X87550595Y-72176343D01*
X87547350Y-72181965D01*
X87545344Y-72188137D01*
X87545342Y-72188143D01*
X87494111Y-72345816D01*
X87492103Y-72351997D01*
X87491424Y-72358449D01*
X87491423Y-72358458D01*
X87477158Y-72494186D01*
X87473415Y-72529800D01*
X87474094Y-72536260D01*
X87491423Y-72701141D01*
X87491424Y-72701148D01*
X87492103Y-72707603D01*
X87494110Y-72713782D01*
X87494111Y-72713783D01*
X87525050Y-72809005D01*
X87547350Y-72877635D01*
X87550597Y-72883259D01*
X87550598Y-72883261D01*
X87619443Y-73002505D01*
X87636741Y-73032465D01*
X87756370Y-73165326D01*
X87901007Y-73270412D01*
X88064333Y-73343129D01*
X88138817Y-73358960D01*
X88172197Y-73371275D01*
X88200711Y-73392568D01*
X91350981Y-76542838D01*
X91377861Y-76583066D01*
X91387300Y-76630519D01*
X91387300Y-76827580D01*
X91371672Y-76887841D01*
X91328729Y-76932913D01*
X91269293Y-76951435D01*
X91208347Y-76938739D01*
X91161253Y-76898024D01*
X91157463Y-76892533D01*
X91146435Y-76872979D01*
X91145358Y-76870585D01*
X91145354Y-76870579D01*
X91142278Y-76863743D01*
X91105185Y-76816397D01*
X91100755Y-76810377D01*
X91066583Y-76760871D01*
X91021570Y-76720993D01*
X91016116Y-76715859D01*
X88940611Y-74640354D01*
X88920905Y-74614673D01*
X88896707Y-74572761D01*
X88893459Y-74567135D01*
X88773830Y-74434274D01*
X88629193Y-74329188D01*
X88539048Y-74289053D01*
X88471805Y-74259114D01*
X88471798Y-74259111D01*
X88465867Y-74256471D01*
X88459514Y-74255120D01*
X88459506Y-74255118D01*
X88297353Y-74220652D01*
X88297350Y-74220651D01*
X88290991Y-74219300D01*
X88112209Y-74219300D01*
X88105850Y-74220651D01*
X88105846Y-74220652D01*
X87943693Y-74255118D01*
X87943682Y-74255121D01*
X87937333Y-74256471D01*
X87931404Y-74259110D01*
X87931394Y-74259114D01*
X87779942Y-74326545D01*
X87779934Y-74326549D01*
X87774008Y-74329188D01*
X87768759Y-74333001D01*
X87768753Y-74333005D01*
X87634623Y-74430456D01*
X87634614Y-74430463D01*
X87629370Y-74434274D01*
X87625026Y-74439097D01*
X87625023Y-74439101D01*
X87514087Y-74562307D01*
X87514082Y-74562313D01*
X87509741Y-74567135D01*
X87506496Y-74572755D01*
X87506492Y-74572761D01*
X87423598Y-74716338D01*
X87423595Y-74716343D01*
X87420350Y-74721965D01*
X87418344Y-74728137D01*
X87418342Y-74728143D01*
X87367111Y-74885816D01*
X87365103Y-74891997D01*
X87364424Y-74898449D01*
X87364423Y-74898458D01*
X87350143Y-75034326D01*
X87346415Y-75069800D01*
X87347094Y-75076260D01*
X87364423Y-75241141D01*
X87364424Y-75241148D01*
X87365103Y-75247603D01*
X87367110Y-75253782D01*
X87367111Y-75253783D01*
X87405994Y-75373454D01*
X87420350Y-75417635D01*
X87423597Y-75423259D01*
X87423598Y-75423261D01*
X87475286Y-75512788D01*
X87509741Y-75572465D01*
X87514085Y-75577290D01*
X87514087Y-75577292D01*
X87562654Y-75631231D01*
X87629370Y-75705326D01*
X87774007Y-75810412D01*
X87905770Y-75869076D01*
X87922679Y-75876605D01*
X87937333Y-75883129D01*
X87943691Y-75884480D01*
X87943693Y-75884481D01*
X87979285Y-75892046D01*
X88112209Y-75920300D01*
X88187881Y-75920300D01*
X88235334Y-75929739D01*
X88275562Y-75956619D01*
X89801581Y-77482638D01*
X89828461Y-77522866D01*
X89837900Y-77570319D01*
X89837900Y-78111781D01*
X89820017Y-78175931D01*
X89771526Y-78221577D01*
X89706414Y-78235555D01*
X89643460Y-78213831D01*
X89600825Y-78162673D01*
X89587209Y-78132420D01*
X89584342Y-78125498D01*
X89580828Y-78116231D01*
X89563018Y-78069270D01*
X89557259Y-78060927D01*
X89546233Y-78041377D01*
X89545156Y-78038984D01*
X89542078Y-78032144D01*
X89535282Y-78023470D01*
X89504991Y-77984805D01*
X89500553Y-77978774D01*
X89470646Y-77935447D01*
X89466383Y-77929271D01*
X89460768Y-77924297D01*
X89460765Y-77924293D01*
X89421370Y-77889393D01*
X89415916Y-77884259D01*
X89018769Y-77487112D01*
X88997474Y-77458593D01*
X88987625Y-77431890D01*
X88987297Y-77431997D01*
X88932050Y-77261965D01*
X88842659Y-77107135D01*
X88723030Y-76974274D01*
X88640573Y-76914365D01*
X88583647Y-76873005D01*
X88583645Y-76873003D01*
X88578393Y-76869188D01*
X88518464Y-76842506D01*
X88421005Y-76799114D01*
X88420998Y-76799111D01*
X88415067Y-76796471D01*
X88408714Y-76795120D01*
X88408706Y-76795118D01*
X88246553Y-76760652D01*
X88246550Y-76760651D01*
X88240191Y-76759300D01*
X88061409Y-76759300D01*
X88055050Y-76760651D01*
X88055046Y-76760652D01*
X87892893Y-76795118D01*
X87892882Y-76795121D01*
X87886533Y-76796471D01*
X87880604Y-76799110D01*
X87880594Y-76799114D01*
X87729142Y-76866545D01*
X87729134Y-76866549D01*
X87723208Y-76869188D01*
X87717959Y-76873001D01*
X87717953Y-76873005D01*
X87583823Y-76970456D01*
X87583814Y-76970463D01*
X87578570Y-76974274D01*
X87574226Y-76979097D01*
X87574223Y-76979101D01*
X87463287Y-77102307D01*
X87463282Y-77102313D01*
X87458941Y-77107135D01*
X87455696Y-77112755D01*
X87455692Y-77112761D01*
X87372798Y-77256338D01*
X87372795Y-77256343D01*
X87369550Y-77261965D01*
X87367544Y-77268137D01*
X87367542Y-77268143D01*
X87316311Y-77425816D01*
X87314303Y-77431997D01*
X87313624Y-77438449D01*
X87313623Y-77438458D01*
X87296684Y-77599622D01*
X87295615Y-77609800D01*
X82933100Y-77609800D01*
X82933100Y-70459923D01*
X82949713Y-70397923D01*
X83013850Y-70286835D01*
X83069097Y-70116803D01*
X83087785Y-69939000D01*
X83069097Y-69761197D01*
X83013850Y-69591165D01*
X82924459Y-69436335D01*
X82804830Y-69303474D01*
X82791091Y-69293491D01*
X82665447Y-69202205D01*
X82665445Y-69202203D01*
X82660193Y-69198388D01*
X82558975Y-69153323D01*
X82502805Y-69128314D01*
X82502798Y-69128311D01*
X82496867Y-69125671D01*
X82490514Y-69124320D01*
X82490506Y-69124318D01*
X82328353Y-69089852D01*
X82328350Y-69089851D01*
X82321991Y-69088500D01*
X82143209Y-69088500D01*
X82136850Y-69089851D01*
X82136846Y-69089852D01*
X81974693Y-69124318D01*
X81974682Y-69124321D01*
X81968333Y-69125671D01*
X81962404Y-69128310D01*
X81962394Y-69128314D01*
X81810942Y-69195745D01*
X81810934Y-69195749D01*
X81805008Y-69198388D01*
X81799759Y-69202201D01*
X81799753Y-69202205D01*
X81665623Y-69299656D01*
X81665614Y-69299663D01*
X81660370Y-69303474D01*
X81656026Y-69308297D01*
X81656023Y-69308301D01*
X81545087Y-69431507D01*
X81545082Y-69431513D01*
X81540741Y-69436335D01*
X81537496Y-69441955D01*
X81537492Y-69441961D01*
X81454598Y-69585538D01*
X81454595Y-69585543D01*
X81451350Y-69591165D01*
X81449344Y-69597337D01*
X81449342Y-69597343D01*
X81398111Y-69755016D01*
X81396103Y-69761197D01*
X81395424Y-69767649D01*
X81395423Y-69767658D01*
X81378484Y-69928822D01*
X81377415Y-69939000D01*
X72503374Y-69939000D01*
X77662791Y-64042523D01*
X77705053Y-64011179D01*
X77756505Y-64000181D01*
X92983831Y-64049144D01*
G37*
%TD.AperFunction*%
%TD*%
M02*
