M48
; DRILL file {KiCad (7.0.0-0)} date Sunday, March 12, 2023 at 05:31:39 AM
; FORMAT={-:-/ absolute / metric / decimal}
; #@! TF.CreationDate,2023-03-12T05:31:39-07:00
; #@! TF.GenerationSoftware,Kicad,Pcbnew,(7.0.0-0)
; #@! TF.FileFunction,MixedPlating,1,2
FMAT,2
METRIC
; #@! TA.AperFunction,Plated,PTH,ViaDrill
T1C0.300
; #@! TA.AperFunction,Plated,PTH,ViaDrill
T2C0.400
; #@! TA.AperFunction,Plated,PTH,ComponentDrill
T3C0.600
; #@! TA.AperFunction,Plated,PTH,ComponentDrill
T4C1.000
; #@! TA.AperFunction,NonPlated,NPTH,ComponentDrill
T5C0.600
%
G90
G05
T1
X70.904Y-121.069
X70.93Y-94.933
X70.93Y-103.67
X70.93Y-112.281
X76.264Y-88.684
X76.314Y-94.831
X76.391Y-103.569
X76.467Y-112.484
X76.467Y-121.171
X82.233Y-69.939
X82.893Y-121.12
X82.969Y-112.484
X82.995Y-103.619
X83.045Y-94.983
X88.151Y-77.61
X88.202Y-75.07
X88.329Y-72.53
X88.938Y-94.933
X88.989Y-103.772
X89.065Y-121.222
X89.091Y-112.281
X90.691Y-67.424
X92.85Y-70.066
X93.231Y-81.775
X94.755Y-94.856
X94.755Y-103.518
X94.755Y-121.171
X94.78Y-112.459
X97.904Y-76.314
X99.251Y-86.703
X100.546Y-68.694
X100.851Y-94.729
X100.876Y-103.721
X100.876Y-112.611
X100.876Y-121.196
X102.095Y-77.508
X106.566Y-103.594
X106.566Y-121.247
X106.591Y-94.78
X108.369Y-103.873
X113.271Y-94.882
X113.271Y-103.696
X113.271Y-112.23
X113.348Y-121.526
X117.031Y-67.932
X123.101Y-67.018
X123.177Y-73.546
X124.841Y-70.104
X124.841Y-74.93
X137.16Y-79.502
X137.16Y-82.55
X140.97Y-84.455
X141.046Y-76.429
X142.38Y-88.938
T2
X106.6Y-112.6
T4
X127.635Y-71.501
X127.635Y-74.041
X127.635Y-76.581
T5
X144.15Y-78.39
X144.15Y-84.17
T3
G00X143.11Y-76.955
M15
G01X144.21Y-76.955
M16
G05
G00X143.11Y-85.605
M15
G01X144.21Y-85.605
M16
G05
G00X147.43Y-76.955
M15
G01X148.23Y-76.955
M16
G05
G00X147.43Y-85.605
M15
G01X148.23Y-85.605
M16
G05
T0
M30
